<svg viewBox="0 0 24 24"
    xmlns="http://www.w3.org/2000/svg">
    <g fill="none" fill-rule="evenodd">
        <path fill="none" d="M0 0h24v24H0z"/>
        <path d="M18.502 22C20.795 22 22 20.795 22 18.527V5.473C22 3.213 20.795 2 18.502 2H5.498C3.213 2 2 3.205 2 5.473v13.054C2 20.803 3.213 22 5.498 22h13.004zm-.166-2.094H5.664c-1.013 0-1.562-.523-1.562-1.587V5.681c0-1.055.549-1.579 1.562-1.579h12.672c1.005 0 1.562.524 1.562 1.579v12.638c0 1.064-.557 1.587-1.562 1.587zm-6.348-3.124c.598 0 .98-.407.98-1.022v-2.8h2.95c.598 0 1.03-.374 1.03-.956 0-.598-.415-.972-1.03-.972h-2.95V8.099c0-.615-.382-1.03-.98-1.03-.582 0-.956.432-.956 1.03v2.933H8.091c-.615 0-1.04.374-1.04.972 0 .582.441.956 1.04.956h2.941v2.8c0 .598.374 1.022.956 1.022z" fill="currentColor" />
    </g>
</svg>
