<svg viewBox="0 0 20 20"
    xmlns="http://www.w3.org/2000/svg">
    <g fill="currentColor" fill-rule="evenodd">
        <path fill="none" d="M0 0h20v20H0z"/>
        <path d="M15.026 17.754c1.801 0 2.731-.93 2.731-2.706V4.946c0-1.776-.93-2.706-2.73-2.706H4.973c-1.793 0-2.731.921-2.731 2.706v10.102c0 1.776.938 2.706 2.73 2.706h10.053zm-.108-1.652H5.082c-.764 0-1.187-.398-1.187-1.203V5.095c0-.805.423-1.203 1.187-1.203h9.836c.756 0 1.187.398 1.187 1.203V14.9c0 .805-.431 1.203-1.187 1.203zm-4.922-2.399c.481 0 .788-.34.788-.855v-2.075h2.217c.498 0 .855-.299.855-.772 0-.49-.34-.797-.855-.797h-2.217V6.996c0-.506-.307-.846-.788-.846-.482 0-.78.348-.78.846v2.208H7.008c-.515 0-.855.307-.855.797 0 .473.357.772.855.772h2.208v2.075c0 .498.298.855.78.855z" />
    </g>
</svg>
