<svg viewBox="0 0 21 20" xmlns="http://www.w3.org/2000/svg">
    <g fill="none" fill-rule="evenodd">
        <path fill="none" d="M.038 0h20v20h-20z"/>
        <path d="M5.988 18.523c.24 0 .456-.1.639-.29l5.628-6.093c.282-.307.448-.39.913-.39h3.412c1.635 0 2.971-.772 2.971-1.743 0-.98-1.336-1.743-2.971-1.743h-3.412c-.465 0-.63-.092-.913-.39L6.627 1.78c-.183-.191-.399-.3-.64-.3H4.926c-.216 0-.34.2-.232.424l2.905 6.35-4.25.474L1.83 6.014c-.116-.207-.299-.299-.564-.299H.89c-.224 0-.373.15-.373.374v7.836c0 .224.149.373.373.373h.374c.265 0 .448-.091.564-.298l1.52-2.723 4.25.481L4.692 18.1c-.108.233.016.423.232.423h1.063z" fill="currentColor"/>
    </g>
</svg>
