<svg xmlns="http://www.w3.org/2000/svg">
    <g fill="none" fill-rule="evenodd">
        <path fill="none" d="M0 0h20v20H0z"/>
        <path d="M10.19 5.134c.748 0 1.678-.498 2.226-1.17.514-.614.871-1.453.871-2.3 0-.116-.008-.232-.033-.323-.822.033-1.818.548-2.416 1.245-.464.531-.896 1.378-.896 2.225 0 .132.016.257.033.298.05.009.133.025.216.025zM7.585 17.768c1.021 0 1.47-.672 2.723-.672 1.287 0 1.569.655 2.698.655 1.112 0 1.851-1.02 2.548-2.025a8.837 8.837 0 0 0 1.13-2.332c-.067-.017-2.2-.889-2.2-3.32 0-2.11 1.676-3.055 1.767-3.13-1.095-1.586-2.78-1.635-3.245-1.635-1.245 0-2.25.755-2.897.755-.69 0-1.586-.706-2.665-.706-2.05 0-4.125 1.694-4.125 4.881 0 1.992.764 4.093 1.718 5.446.814 1.145 1.527 2.083 2.548 2.083z" fill="currentColor"/>
    </g>
</svg>
