<svg viewBox="0 0 20 20"
    xmlns="http://www.w3.org/2000/svg">
    <g fill="none" fill-rule="evenodd">
        <path fill="none" d="M0 0h20v20H0z"/>
        <path d="m15.28 11.816 1.306-1.825c.253-.355.137-.683-.314-.683h-.725c-.341-2.714-2.707-4.888-5.544-4.888a5.476 5.476 0 0 0-3.985 1.743c-.294.287-.273.656-.034.868.246.226.588.22.882-.054.779-.82 1.9-1.34 3.137-1.34 2.208 0 3.993 1.6 4.314 3.67h-.759c-.444 0-.567.329-.314.684l1.298 1.825c.212.288.534.294.739 0zm-5.277 3.774a5.491 5.491 0 0 0 3.993-1.743c.287-.287.266-.663.027-.882-.246-.219-.588-.212-.875.061a4.29 4.29 0 0 1-3.145 1.354 4.344 4.344 0 0 1-4.313-3.67h.752c.444 0 .567-.33.314-.685L5.458 8.2c-.206-.294-.527-.294-.739 0L3.42 10.02c-.26.355-.143.69.308.69h.731c.342 2.707 2.708 4.88 5.544 4.88z" fill="currentColor"/>
    </g>
</svg>
