<svg xmlns="http://www.w3.org/2000/svg">
    <g fill="none" fill-rule="evenodd">
        <path fill="none" d="M20 0H0v20h20z"/>
        <path d="M4.974 17.776c-1.801 0-2.731-.93-2.731-2.706V4.968c0-1.776.93-2.706 2.73-2.706h10.053c1.793 0 2.731.922 2.731 2.706V15.07c0 1.777-.938 2.706-2.73 2.706H4.973zm.108-1.651h9.836c.764 0 1.187-.399 1.187-1.204V5.118c0-.806-.423-1.204-1.187-1.204H5.082c-.756 0-1.187.398-1.187 1.204v9.803c0 .805.431 1.204 1.187 1.204zm4.225-2.549a.67.67 0 0 1-.506-.207l-2.823-2.773c-.174-.174-.274-.357-.274-.597 0-.225.092-.399.274-.59l2.823-2.78a.695.695 0 0 1 .506-.2c.382 0 .664.29.664.68a.681.681 0 0 1-.216.507l-.996.971-.938.747 1.702-.074h4.05c.416 0 .723.315.723.747 0 .423-.3.739-.723.739h-4.05l-1.71-.075.938.755 1.004.955a.664.664 0 0 1 .216.506c0 .39-.282.69-.664.69z"  fill="currentColor"/>
    </g>
</svg>
