<svg xmlns="http://www.w3.org/2000/svg">
    <g fill="none" fill-rule="evenodd">
        <path fill="none" d="M0 0h20v20H0z"/>
        <path d="M15.026 17.776c1.801 0 2.731-.93 2.731-2.706V4.968c0-1.776-.93-2.706-2.73-2.706H4.973c-1.793 0-2.731.922-2.731 2.706V15.07c0 1.777.938 2.706 2.73 2.706h10.053zm-.108-1.651H5.082c-.764 0-1.187-.399-1.187-1.204V5.118c0-.806.423-1.204 1.187-1.204h9.836c.756 0 1.187.398 1.187 1.204v9.803c0 .805-.431 1.204-1.187 1.204zm-1.984-2.258 2.01-2.067a.612.612 0 0 0 .182-.407.54.54 0 0 0-.565-.564.532.532 0 0 0-.398.166l-.839.863-.249.282.009-.415v-5.18a.557.557 0 0 0-.573-.564.555.555 0 0 0-.564.564v5.188l.016.407-.265-.282-.83-.863a.559.559 0 0 0-.399-.166c-.332 0-.556.232-.556.564 0 .133.066.29.166.407l2.017 2.067c.207.207.598.24.838 0zm-5.437.166a.55.55 0 0 0 .573-.556V8.289l-.017-.415.258.29.838.863a.527.527 0 0 0 .399.166.536.536 0 0 0 .556-.556.625.625 0 0 0-.175-.407L7.912 6.164a.58.58 0 0 0-.83 0L5.065 8.23a.683.683 0 0 0-.174.407c0 .324.24.556.564.556a.54.54 0 0 0 .39-.166l.839-.863.257-.29-.008.423v5.18c0 .323.24.556.564.556z" fill-opacity=".87" fill="#000"/>
    </g>
</svg>
