<svg viewBox="0 0 20 20"
    xmlns="http://www.w3.org/2000/svg">
    <g fill="none" fill-rule="evenodd">
        <path fill="none" d="M0 0h20v20H0z"/>
        <path d="M8.226 9.343c.955 0 1.51-.556 1.51-1.511v-4.54c0-.523-.398-.914-.929-.914-.523 0-.905.382-.905.914v.589l.175 2.573-1.918-2.017-2.374-2.39a.864.864 0 0 0-.647-.266c-.565 0-.971.382-.971.946 0 .257.1.49.282.664L4.83 5.773l2.017 1.918-2.59-.174H3.62c-.531 0-.921.373-.921.904 0 .532.39.922.921.922h4.607zm9.314 8.965c.564 0 .97-.382.97-.947 0-.257-.099-.481-.273-.664l-2.432-2.424-2.017-1.917 2.59.174h.713c.532 0 .922-.382.922-.905 0-.54-.39-.92-.922-.92H12.41c-.955 0-1.511.555-1.511 1.51v4.615c0 .523.398.913.93.913.523 0 .904-.382.904-.913v-.672l-.174-2.565 1.918 2.017 2.423 2.432a.846.846 0 0 0 .64.266z" fill="currentColor" fill-rule="nonzero"/>
    </g>
</svg>
