<svg viewBox="0 0 20 20"
    xmlns="http://www.w3.org/2000/svg">
    <g fill="none" fill-rule="evenodd">
        <path fill="none" d="M0 0h20v20H0z"/>
        <path d="M8.708 9.567c.564 0 .97-.382.97-.946 0-.258-.099-.482-.273-.664L7.022 5.574 4.997 3.665l2.59.174h.647c.523 0 .922-.381.922-.913a.894.894 0 0 0-.922-.921H3.627c-.954 0-1.51.556-1.51 1.51v4.541c0 .523.39.913.921.913a.885.885 0 0 0 .913-.913v-.59l-.174-2.572L5.694 6.91 8.068 9.3a.859.859 0 0 0 .64.266zm7.894 8.45c.954 0 1.51-.556 1.51-1.51v-4.541a.897.897 0 0 0-.921-.913.885.885 0 0 0-.913.913v.59l.174 2.572-1.917-2.017-2.374-2.39a.864.864 0 0 0-.648-.266c-.564 0-.971.382-.971.946 0 .258.1.49.282.664l2.383 2.383 2.025 1.909-2.59-.174h-.647c-.532 0-.922.381-.922.913 0 .531.39.921.922.921h4.607z" fill="#000"/>
    </g>
</svg>
