<svg viewBox="0 0 20 20"
    xmlns="http://www.w3.org/2000/svg">
    <g fill="none" fill-rule="evenodd">
        <path fill="none" d="M0 0h20v20H0z"/>
        <path d="M12.953 15.253c.224 0 .473-.1.647-.274l4.383-4.316a.885.885 0 0 0 .282-.664.911.911 0 0 0-.282-.665L13.6 5.026a.949.949 0 0 0-.647-.274c-.523 0-.872.366-.872.872 0 .266.1.457.257.623l1.793 1.734 1.403 1.204-1.86-.075H6.32l-1.859.075 1.411-1.204 1.785-1.734a.832.832 0 0 0 .265-.623c0-.506-.357-.872-.88-.872-.224 0-.473.1-.647.274L2.012 9.334A.945.945 0 0 0 1.73 10c0 .249.1.49.282.664l4.383 4.316a.949.949 0 0 0 .648.274c.522 0 .88-.365.88-.872 0-.265-.1-.456-.266-.622l-1.785-1.735-1.411-1.204 1.86.075h7.354l1.86-.075-1.404 1.204-1.793 1.735a.856.856 0 0 0-.257.622c0 .507.349.872.872.872z" fill="currentColor"/>
    </g>
</svg>
