<svg viewBox="0 0 20 20"
    xmlns="http://www.w3.org/2000/svg">
    <g fill="none" fill-rule="evenodd">
        <path fill="none" d="M20 0v20H0V0z"/>
        <path d="M2.224 15.026c0 1.801.93 2.731 2.706 2.731h10.102c1.776 0 2.706-.93 2.706-2.73V4.973c0-1.793-.922-2.731-2.706-2.731H4.93c-1.777 0-2.706.938-2.706 2.73v10.053zm1.651-.108V5.082c0-.764.399-1.187 1.204-1.187h9.803c.806 0 1.204.423 1.204 1.187v9.836c0 .756-.398 1.187-1.204 1.187H5.08c-.805 0-1.204-.431-1.204-1.187zm2.549-4.225a.67.67 0 0 0 .207.506l2.773 2.823c.174.174.357.274.597.274.225 0 .399-.092.59-.274l2.78-2.823a.695.695 0 0 0 .2-.506c0-.382-.29-.664-.68-.664a.681.681 0 0 0-.507.216l-.971.996-.747.938.074-1.702v-4.05c0-.416-.315-.723-.747-.723-.423 0-.739.3-.739.723v4.05l.075 1.71-.755-.938-.955-1.004a.664.664 0 0 0-.506-.216c-.39 0-.69.282-.69.664z" fill="currentColor" />
    </g>
</svg>
