<svg xmlns="http://www.w3.org/2000/svg">
    <g fill="none" fill-rule="evenodd">
        <path fill="none" d="M0 0h20v20H0z"/>
        <path d="M9.997 15.667c1.271 0 2.14-.97 2.187-2.016h2.065c.622 0 .998-.329.998-.828 0-.567-.534-1.066-1.026-1.53-.342-.322-.458-.958-.506-1.594-.048-2.16-.642-3.568-2.071-4.108-.219-.704-.827-1.251-1.647-1.251-.82 0-1.43.547-1.648 1.251-1.429.54-2.016 1.948-2.071 4.108-.041.636-.157 1.272-.5 1.593-.491.465-1.025.964-1.025 1.531 0 .5.376.828.992.828h2.064c.041 1.032.916 2.016 2.188 2.016zm3.807-3.103H6.175v-.062c.158-.123.451-.376.698-.67.32-.376.54-1.018.567-1.996.034-2.331.738-3.042 1.593-3.274.116-.028.184-.09.191-.233.014-.547.315-.902.773-.902s.758.355.772.902c.014.144.075.205.198.233.855.232 1.559.943 1.593 3.274.027.978.246 1.62.56 1.996.254.294.527.547.684.67v.062zm-3.807 2.153c-.595 0-1.026-.417-1.067-1.066h2.133c-.027.642-.465 1.066-1.066 1.066z" fill="currentColor"/>
    </g>
</svg>
