<svg viewBox="0 0 21 20" xmlns="http://www.w3.org/2000/svg">
    <g fill="none" fill-rule="evenodd">
        <path fill="none" d="M.502 0h20v20h-20z"/>
        <path d="M19.85 16.324c.394 0 .652-.266.652-.652V4.322c0-.394-.258-.652-.652-.652H1.154c-.395 0-.652.258-.652.652v11.35c0 .386.257.652.652.652H19.85zm-1.07-1.517H2.23c-.151 0-.22-.06-.22-.212V5.399c0-.152.069-.22.22-.22h16.55c.152 0 .213.068.213.22v9.196c0 .152-.06.212-.212.212zm-.917-.735c.25 0 .395-.144.395-.402V6.324c0-.258-.144-.402-.395-.402H3.148c-.25 0-.395.144-.395.402v7.346c0 .258.144.402.395.402h14.715zm-9.12-.804H3.716c-.106 0-.159-.06-.159-.159V6.885c0-.107.053-.16.16-.16h5.018C8.098 7.43 7.69 8.56 7.69 9.985c0 1.433.41 2.57 1.054 3.283zm8.552 0h-5.05c.66-.712 1.077-1.85 1.077-3.283 0-1.425-.41-2.555-1.069-3.26h5.042c.098 0 .159.053.159.16v6.224c0 .099-.06.16-.16.16zm-6.824-.151c-1.008 0-1.865-1.206-1.865-3.132 0-1.91.857-3.108 1.865-3.108 1.054 0 1.934 1.198 1.934 3.108 0 1.926-.88 3.132-1.934 3.132z" fill="currentColor"/>
    </g>
</svg>
