<svg viewBox="0 0 24 24"
    xmlns="http://www.w3.org/2000/svg">
    <g fill="none" fill-rule="evenodd">
        <path fill="none" d="M0 0h24v24H0z"/>
        <path d="M12 23.217c2.433 0 4.076-1.826 4.16-3.86h4.573c1.054 0 1.718-.598 1.718-1.494 0-1.17-1.012-2.142-1.984-3.063-.838-.813-.979-2.424-1.17-4.167-.207-3.785-1.411-6.408-4.142-7.363C14.748 1.826 13.57.78 12.001.78c-1.57 0-2.756 1.046-3.155 2.49-2.73.955-3.934 3.578-4.142 7.363-.19 1.743-.332 3.354-1.17 4.167-.971.921-1.984 1.893-1.984 3.063 0 .896.664 1.494 1.718 1.494h4.574c.058 2.009 1.71 3.86 4.159 3.86zm7.853-5.819H4.115v-.116c.282-.349.921-.946 1.46-1.56.798-.914 1.063-2.715 1.221-4.79.183-3.951 1.428-5.404 3.13-5.86.273-.067.431-.2.464-.507.075-1.07.673-1.793 1.61-1.793.939 0 1.536.722 1.611 1.793.025.307.183.44.465.507 1.693.456 2.947 1.909 3.121 5.86.158 2.075.432 3.876 1.228 4.79.532.614 1.146 1.211 1.428 1.56v.116zm-7.852 4.15c-1.196 0-2.067-.863-2.142-2.19h4.283c-.058 1.31-.938 2.19-2.141 2.19z" fill="currentColor" />
    </g>
</svg>
