<svg viewBox="0 0 20 20" version="1.1"
    xmlns="http://www.w3.org/2000/svg"
    xmlns:xlink="http://www.w3.org/1999/xlink">
    <g id="Page-1" stroke="none" stroke-width="1" fill="none" fill-rule="evenodd">
        <g id="タスクの登録フロー" transform="translate(-1008.000000, -1576.000000)">
            <g id="Group-47-Copy-19" transform="translate(960.000000, 1176.000000)">
                <g id="Group-25" transform="translate(24.000000, 160.000000)">
                    <g id="Group-36-Copy" transform="translate(0.000000, 12.000000)">
                        <g id="Group-36-Copy-34" transform="translate(0.000000, 204.000000)">
                            <g id="Group-2" transform="translate(12.000000, 12.000000)">
                                <g id="bell" transform="translate(12.000000, 12.000000)">
                                    <rect id="Rectangle" fill-opacity="0" fill="#FFFFFF" x="0" y="0" width="20" height="20"></rect>
                                    <path d="M10,18.6396484 C11.9008789,18.6396484 13.2041016,17.1953125 13.2705078,15.6015625 L16.6821289,15.6015625 C17.5454102,15.6015625 18.0766602,15.128418 18.0766602,14.4145508 C18.0766602,13.5263672 17.2714844,12.7709961 16.5161133,12.0488281 C15.9267578,11.4760742 15.7856445,10.3305664 15.6777344,9.16015625 C15.5615234,6.03076172 14.6401367,3.93896484 12.4819336,3.15869141 C12.1582031,2.0546875 11.2368164,1.21630859 10,1.21630859 C8.76318359,1.21630859 7.84179688,2.0546875 7.52636719,3.15869141 C5.35986328,3.93896484 4.44677734,6.03076172 4.32226562,9.16015625 C4.21435547,10.3305664 4.07324219,11.4760742 3.48388672,12.0488281 C2.72851562,12.7709961 1.92333984,13.5263672 1.92333984,14.4145508 C1.92333984,15.128418 2.45458984,15.6015625 3.31787109,15.6015625 L6.73779297,15.6015625 C6.79589844,17.1787109 8.09082031,18.6396484 10,18.6396484 Z M16.034668,14.0576172 L3.94873047,14.0576172 L3.94873047,13.9580078 C4.16455078,13.7172852 4.64599609,13.2773438 5.05273438,12.8125 C5.62548828,12.1567383 5.89111328,10.9448242 5.97412109,9.36767578 C6.07373047,6.0390625 7.10302734,4.91845703 8.43115234,4.56152344 C8.63867188,4.50341797 8.74658203,4.40380859 8.76318359,4.1796875 C8.8046875,3.34130859 9.27783203,2.77685547 10,2.77685547 C10.7304688,2.77685547 11.1953125,3.34130859 11.2368164,4.1796875 C11.253418,4.40380859 11.3696289,4.50341797 11.5688477,4.56152344 C12.9052734,4.91845703 13.9262695,6.0390625 14.0258789,9.36767578 C14.1171875,10.9448242 14.3828125,12.1567383 14.9472656,12.8125 C15.3540039,13.2773438 15.8188477,13.7172852 16.034668,13.9580078 L16.034668,14.0576172 Z M10,17.3032227 C9.06201172,17.3032227 8.38964844,16.6308594 8.33154297,15.6015625 L11.6767578,15.6015625 C11.6269531,16.6225586 10.9462891,17.3032227 10,17.3032227 Z" fill="currentColor"></path>
                                </g>
                            </g>
                        </g>
                    </g>
                </g>
            </g>
        </g>
    </g>
</svg>