<svg viewBox="0 0 21 20" xmlns="http://www.w3.org/2000/svg">
    <g fill="none" fill-rule="evenodd">
        <path fill="none" d="M.577 0h20v20h-20z"/>
        <path d="m8.643 19.11 7.753-9.894c.15-.182.224-.357.224-.556 0-.348-.266-.597-.631-.597h-4.74l2.457-6.508c.34-.913-.614-1.395-1.195-.648l-7.745 9.887c-.15.19-.232.365-.232.564 0 .34.265.598.63.598h4.749l-2.466 6.5c-.34.912.615 1.394 1.196.655zm1.104-3.635 2.233-4.856H6.817l4.59-6.076-2.241 4.856h5.163l-4.582 6.076z" fill="currentColor"/>
    </g>
</svg>
