<svg viewBox="0 0 20 20" xmlns="http://www.w3.org/2000/svg">
    <g fill="currentColor" fill-rule="evenodd">
        <path fill="none" d="M0 0h20v20H0z"/>
        <path d="M10.069 18.59c4.706 0 8.591-3.885 8.591-8.583s-3.893-8.583-8.6-8.583c-4.698 0-8.574 3.885-8.574 8.583s3.885 8.583 8.583 8.583zm0-1.71a6.84 6.84 0 0 1-6.857-6.873 6.832 6.832 0 0 1 6.849-6.865 6.86 6.86 0 0 1 6.88 6.865 6.85 6.85 0 0 1-6.872 6.873zm1.934-4.1c.207 0 .407-.117.59-.341l2.714-3.478c.39-.49-.083-1.03-.631-.739l-2.69 1.42-3.378-1.835a1.04 1.04 0 0 0-.482-.15c-.215 0-.406.109-.589.341l-2.706 3.461c-.415.532.1 1.038.64.764l2.672-1.428 3.378 1.835c.175.091.333.15.482.15z" fill-opacity=".87"/>
    </g>
</svg>
