<svg viewBox="0 0 21 20" xmlns="http://www.w3.org/2000/svg">
    <g fill="none" fill-rule="evenodd">
        <path fill="none" d="M.116 0h20v20h-20z"/>
        <path d="M10.12 17.862c.348 0 .663-.133 1.045-.498a4.71 4.71 0 0 1 3.204-1.287c1.104-.008 2.175.349 3.088.955.365.224.623.381.938.381.59 0 1.088-.34 1.088-1.095V5.054a.861.861 0 0 0-.117-.465c-.78-1.353-2.714-2.449-5.03-2.449-1.768 0-3.337.68-4.217 1.668-.88-.987-2.448-1.668-4.216-1.668-2.316 0-4.25 1.096-5.03 2.449a.861.861 0 0 0-.117.465v11.264c0 .755.498 1.095 1.087 1.095.316 0 .573-.157.938-.381.914-.606 1.984-.963 3.088-.955 1.162.008 2.3.432 3.204 1.287.39.365.698.498 1.046.498zm-.814-2.341c-.839-.623-2.1-1.07-3.403-1.07-1.362 0-2.648.364-3.52.954V5.295c.656-.922 2.059-1.528 3.52-1.528 1.51 0 2.83.614 3.403 1.569V15.52zm1.627 0V5.336c.573-.955 1.9-1.569 3.403-1.569 1.461 0 2.864.606 3.52 1.527v10.11c-.872-.589-2.159-.954-3.52-.954-1.303 0-2.565.448-3.403 1.07z" fill="currentColor"/>
    </g>
</svg>
