<svg viewBox="0 0 21 20" xmlns="http://www.w3.org/2000/svg">
    <g fill="none" fill-rule="evenodd">
        <path fill="none" d="M.191 0h20v20h-20z"/>
        <path d="m17.53 18.703.94-.117c1.285-.165 1.84-.854 1.7-2.138L18.9 5.014c-.14-1.277-.846-1.888-2.13-1.716l-.94.11a2.868 2.868 0 0 0-.861.243v-.439c0-1.284-.635-1.942-1.92-1.942h-1.636c-1.292 0-1.927.658-1.927 1.942v3.102a2.012 2.012 0 0 0-.509-.063H5.681a2.03 2.03 0 0 0-.517.063V5.42c0-1.285-.634-1.942-1.919-1.942H2.118C.825 3.479.19 4.136.19 5.42v11.317c0 1.284.634 1.942 1.927 1.942H13.05c1.284 0 1.919-.658 1.919-1.942v-3.673l.438 3.923c.149 1.277.838 1.88 2.122 1.715zm-4.699-1.496H10.96V3.4c0-.423.227-.658.673-.658h1.198c.455 0 .674.235.674.658v13.142c0 .438-.22.665-.674.665zm4.01-.571-1.23-11.059c-.046-.43.15-.665.596-.728l.509-.07c.446-.063.697.164.744.58l1.23 11.057c.054.431-.141.674-.588.737l-.517.062c-.446.063-.689-.148-.744-.58zm-13.15.571H2.33c-.446 0-.666-.227-.666-.665V5.609c0-.423.22-.658.666-.658h.69c.454 0 .673.235.673.658v11.598zm5.796 0H5.164V8.381c0-.423.227-.658.674-.658h2.976c.454 0 .673.235.673.658v8.826zM8.36 9.697c.282 0 .5-.22.5-.51a.493.493 0 0 0-.5-.493H6.323a.49.49 0 0 0-.509.494c0 .29.22.509.51.509H8.36zm0 6.547c.282 0 .5-.22.5-.509a.495.495 0 0 0-.5-.501H6.323c-.29 0-.509.22-.509.501 0 .29.212.51.51.51H8.36z"  fill="currentColor"/>
    </g>
</svg>
