<svg xmlns="http://www.w3.org/2000/svg">
    <g fill="none" fill-rule="evenodd">
        <path fill="none" d="M.73 0h20v20h-20z"/>
        <path d="M17.464 18.252c1.784 0 2.69-.897 2.69-2.656V7.469c0-1.76-.906-2.656-2.69-2.656H15.08v-.755c0-1.57-.855-2.308-2.415-2.308H8.789c-1.494 0-2.407.739-2.407 2.308v.755h-2.39c-1.769 0-2.682.896-2.682 2.656v8.127c0 1.76.913 2.656 2.682 2.656h13.472zM13.57 4.813H7.893v-.755c0-.59.34-.922.946-.922h3.777c.614 0 .955.332.955.922v.755zm-2.84 4.972c-2.855 0-5.494-.398-7.794-1.187v-1.07c0-.764.39-1.138 1.12-1.138h13.349c.73 0 1.12.374 1.12 1.137v1.071c-2.3.789-4.939 1.187-7.794 1.187zm6.675 6.898H4.058c-.73 0-1.12-.382-1.12-1.137v-5.362c1.71.514 3.56.846 5.494.996v.655c0 .623.366.972 1.005.972h2.59c.639 0 .996-.349.996-.972v-.655c1.942-.15 3.793-.482 5.503-.996v5.362c0 .755-.39 1.137-1.12 1.137z" fill="currentColor" fill-rule="nonzero"/>
    </g>
</svg>
