<svg viewBox="0 0 21 20" xmlns="http://www.w3.org/2000/svg">
    <g fill="none" fill-rule="evenodd">
        <path fill="none" d="M.423 0h20v20h-20z"/>
        <path d="M6.461 18.743c.465 0 .813-.224 1.378-.722l2.847-2.523h5.022c2.499 0 3.901-1.428 3.901-3.894v-6.44c0-2.466-1.402-3.894-3.9-3.894H5.124c-2.499 0-3.902 1.428-3.902 3.893v6.441c0 2.466 1.436 3.894 3.843 3.894h.34v2.05c0 .739.39 1.195 1.055 1.195zm.407-1.826v-2.366c0-.49-.208-.68-.68-.68H5.165c-1.569 0-2.316-.789-2.316-2.316V5.213c0-1.527.747-2.316 2.316-2.316h10.492c1.57 0 2.324.789 2.324 2.316v6.342c0 1.527-.755 2.316-2.324 2.316h-5.063c-.498 0-.747.083-1.096.448l-2.631 2.598z" fill="currentColor"/>
    </g>
</svg>
