<svg xmlns="http://www.w3.org/2000/svg">
    <g fill="none" fill-rule="evenodd">
        <path fill="none" d="M0 0h20v20H0z"/>
        <path d="M18.397 18.908c1 0 1.603-.661 1.603-1.727V6.958c0-1.075-.603-1.736-1.603-1.736h-4.76V2.817c0-1.074-.604-1.727-1.612-1.727H1.603C.603 1.09 0 1.743 0 2.817v14.364c0 1.066.603 1.727 1.603 1.727h16.794zM3.86 17.28H2.058c-.29 0-.43-.14-.43-.421V3.139c0-.28.14-.42.43-.42h9.52c.282 0 .43.14.43.42v13.72c0 .28-.148.421-.43.421H9.778v-2.388c0-.703-.33-1.05-1-1.05H4.86c-.67 0-1 .347-1 1.05v2.388zM5.694 6.288c.19 0 .323-.132.323-.33v-1.53c0-.198-.133-.33-.323-.33H4.116c-.199 0-.323.132-.323.33v1.53c0 .198.124.33.323.33h1.578zm3.818 0c.199 0 .331-.132.331-.33v-1.53c0-.198-.132-.33-.33-.33h-1.57c-.2 0-.323.132-.323.33v1.53c0 .198.124.33.322.33h1.57zm8.43 10.992h-4.306V6.85h4.306c.29 0 .43.15.43.43v9.579c0 .28-.14.421-.43.421zM5.694 9.445c.19 0 .323-.132.323-.33v-1.53c0-.197-.133-.33-.323-.33H4.116c-.199 0-.323.133-.323.33v1.53c0 .198.124.33.323.33h1.578zm3.818 0c.199 0 .331-.132.331-.33v-1.53c0-.197-.132-.33-.33-.33h-1.57c-.2 0-.323.133-.323.33v1.53c0 .198.124.33.322.33h1.57zm7.14.521a.26.26 0 0 0 .274-.273V8.421c0-.166-.108-.273-.273-.273h-1.306c-.165 0-.264.107-.264.273v1.272c0 .157.099.273.264.273h1.306zM5.695 12.602c.19 0 .323-.132.323-.33v-1.53c0-.197-.133-.33-.323-.33H4.116c-.199 0-.323.133-.323.33v1.53c0 .198.124.33.323.33h1.578zm3.818 0c.199 0 .331-.132.331-.33v-1.53c0-.197-.132-.33-.33-.33h-1.57c-.2 0-.323.133-.323.33v1.53c0 .198.124.33.322.33h1.57zm7.14.405a.26.26 0 0 0 .274-.272v-1.273c0-.165-.108-.273-.273-.273h-1.306c-.165 0-.264.108-.264.273v1.273c0 .157.099.272.264.272h1.306zm0 3.042a.26.26 0 0 0 .274-.273v-1.273c0-.165-.108-.273-.273-.273h-1.306c-.165 0-.264.108-.264.273v1.273c0 .157.099.273.264.273h1.306zM8.505 17.28H5.132v-1.95c0-.174.083-.257.256-.257h2.86c.173 0 .256.083.256.257v1.95z" fill="currentColor"/>
    </g>
</svg>
