<svg viewBox="0 0 24 24"
    xmlns="http://www.w3.org/2000/svg">
    <g fill="none" fillRule="evenodd">
        <path fill="none" d="M0 0h24v24H0z"/>
        <path d="m11.077 18.367 3.788-4.923a.472.472 0 0 0 .135-.302.353.353 0 0 0-.357-.352h-2.31l1.227-3.423c.184-.504-.328-.775-.637-.373l-3.807 4.923A.495.495 0 0 0 9 14.22c0 .202.155.343.348.343h2.319l-1.247 3.433c-.174.503.338.775.657.372z" fill="currentColor"/>
        <path d="M19.446 22c2.285 0 3.498-1.205 3.498-3.473V5.473c0-2.26-1.213-3.473-3.498-3.473H4.548C2.263 2 1.05 3.205 1.05 5.473v13.054C1.05 20.803 2.263 22 4.548 22h14.898zm-.058-2.094H4.598c-.939 0-1.446-.482-1.446-1.462V8.739c0-.99.507-1.463 1.446-1.463h14.79c.93 0 1.454.474 1.454 1.463v9.705c0 .98-.523 1.462-1.454 1.462z" fill="currentColor" />
    </g>
</svg>
