<svg xmlns="http://www.w3.org/2000/svg">
    <g fill="none" fill-rule="evenodd">
        <path fill="none" d="M0 0h20v20H0z"/>
        <path d="M15.711 17.776c1.801 0 2.74-.93 2.74-2.706V4.968c0-1.776-.939-2.706-2.74-2.706H4.281c-1.793 0-2.731.922-2.731 2.706V15.07c0 1.777.938 2.706 2.731 2.706h11.43zm.008-1.651H4.273c-.69 0-1.071-.357-1.071-1.088V7.4c0-.73.382-1.087 1.07-1.087H15.72c.69 0 1.071.357 1.071 1.087v7.637c0 .73-.382 1.088-1.07 1.088zm-6.59-1.608c.308 0 .524-.216.524-.548 0-.34-.216-.54-.523-.54H6.996v-.058l1.445-1.685c.614-.714 1.037-1.295 1.037-2.092-.008-1.137-.821-1.876-2.092-1.876-.979 0-1.834.606-2.05 1.445a1.371 1.371 0 0 0-.041.315c0 .324.19.54.506.54.274 0 .415-.158.515-.407.182-.556.556-.83 1.087-.83.59 0 .98.365.98.913 0 .498-.399.913-.78 1.378l-2.01 2.349c-.157.183-.224.349-.224.54 0 .34.225.556.548.556H9.13zm4.632.166c.357 0 .548-.25.548-.59v-.871h.382c.316 0 .507-.191.507-.507 0-.323-.2-.514-.507-.514h-.382V8.598c0-.54-.348-.88-.896-.88-.531 0-.847.2-1.13.698a111.336 111.336 0 0 0-1.85 3.312c-.133.265-.191.481-.191.738 0 .473.299.756.764.756h2.216v.871c0 .34.19.59.54.59zm-.54-2.474h-1.809v-.041a94.93 94.93 0 0 1 1.768-3.254h.042v3.295z" fill="currentColor"/>
    </g>
</svg>
