<svg viewBox="0 0 20 20" xmlns="http://www.w3.org/2000/svg">
    <g fill="none" fill-rule="evenodd">
        <path fill="none" d="M0 0h20v20H0z"/>
        <path d="M15.711 17.776c1.801 0 2.74-.93 2.74-2.706V4.968c0-1.776-.939-2.706-2.74-2.706H4.281c-1.793 0-2.731.922-2.731 2.706V15.07c0 1.777.938 2.706 2.731 2.706h11.43zm.008-1.651H4.273c-.69 0-1.071-.357-1.071-1.088V7.4c0-.73.382-1.087 1.07-1.087H15.72c.69 0 1.071.357 1.071 1.087v7.637c0 .73-.382 1.088-1.07 1.088z" fill-opacity=".87" fill="currentColor"/>
    </g>
</svg>
