<svg viewBox="0 0 21 20" xmlns="http://www.w3.org/2000/svg">
    <g fill="none" fill-rule="evenodd">
        <path fill="none" d="M.884 0h20v20h-20z"/>
        <path d="M3.422 17.866c.64 0 1.128-.49 1.128-1.12v-1.352c1.817.1 4.306.174 6.338.174 2.024 0 4.513-.074 6.33-.174v1.352c0 .63.489 1.12 1.128 1.12h.995c.63 0 1.12-.49 1.12-1.12v-2.173c.274-.324.423-.747.423-1.278v-1.46c0-1.451-.257-2.272-1.045-3.268l-.73-.929c-.307-1.493-.863-3.06-1.145-3.675-.465-.97-1.352-1.56-2.497-1.709-.57-.079-2.221-.12-4.282-.124h-.297c-2.206 0-3.99.05-4.579.124-1.153.141-2.04.739-2.505 1.71-.282.613-.838 2.18-1.145 3.674l-.73.93c-.788.995-1.045 1.816-1.045 3.268v1.46c0 .53.15.953.423 1.277v2.173c0 .622.49 1.12 1.12 1.12h.995zm7.466-3.617c-2.845 0-6.387-.132-7.731-.29-.705-.091-.97-.448-.97-1.078v-1.12c0-1.12.207-1.65.796-2.422l.896-1.17c.199-1.12.738-2.837 1.086-3.584.274-.589.805-.929 1.535-1.012.564-.074 2.19-.149 4.388-.149 2.19 0 3.85.083 4.372.15.746.09 1.26.43 1.543 1.02.356.73.879 2.447 1.086 3.575l.896 1.17c.59.771.797 1.302.797 2.422v1.12c0 .63-.266.995-.971 1.078-1.344.158-4.886.29-7.723.29zM5.421 7.83c1.228-.075 2.763-.15 5.467-.15 2.696 0 4.23.075 5.458.15.357.016.498-.133.423-.465-.182-.804-.53-1.866-.771-2.28-.224-.416-.498-.582-.979-.648-.536-.079-1.783-.128-3.805-.132h-.326c-2.223 0-3.575.05-4.14.132-.48.066-.746.232-.978.647-.232.415-.58 1.477-.772 2.281-.074.332.067.481.423.465zm-.539 5.342c.788 0 1.386-.597 1.386-1.385S5.67 10.4 4.882 10.4c-.788 0-1.385.598-1.385 1.386 0 .788.597 1.385 1.385 1.385zm12.004 0c.788 0 1.385-.597 1.385-1.385s-.597-1.386-1.385-1.386-1.386.598-1.386 1.386c0 .788.598 1.385 1.386 1.385zm-3.766-.34c.589 0 1.003-.415 1.003-1.004s-.414-1.004-1.003-1.004H8.648c-.589 0-1.003.415-1.003 1.004 0 .59.414 1.004 1.003 1.004h4.472z" fill="currentColor"/>
    </g>
</svg>
