<svg viewBox="0 0 21 20" xmlns="http://www.w3.org/2000/svg">
    <g fill="none" fill-rule="evenodd">
        <path fill="none" d="M.655 0h20v20h-20z"/>
        <path d="M17.46 14.116a.72.72 0 0 0 .73-.73.72.72 0 0 0-.73-.73H7.98c-.407 0-.656-.291-.714-.714l-.125-.864h10.385c1.261 0 1.925-.772 2.116-2.025l.623-4.175c.016-.117.033-.258.033-.34 0-.482-.34-.806-.905-.806H6.07l-.132-.913c-.1-.714-.382-1.079-1.304-1.079H1.78c-.407 0-.764.357-.764.78 0 .415.357.772.764.772h2.615l1.295 8.816c.182 1.245.846 2.008 2.108 2.008h9.662zM6.924 9.617l-.639-4.424h12.31l-.53 3.71c-.059.432-.291.706-.706.706l-10.435.008zm1.544 8.65c.806 0 1.436-.64 1.436-1.436 0-.805-.63-1.445-1.436-1.445-.796 0-1.436.64-1.436 1.445 0 .797.64 1.436 1.436 1.436zm7.679 0c.805 0 1.444-.64 1.444-1.436 0-.805-.64-1.445-1.444-1.445a1.44 1.44 0 1 0 0 2.88z" fill="currentColor"/>
    </g>
</svg>
