<svg viewBox="0 0 21 20" xmlns="http://www.w3.org/2000/svg">
    <g fill="none" fill-rule="evenodd">
        <path fill="none" d="M.962 0h20v20h-20z"/>
        <path d="M9.687 14.48c.49 0 .805-.299.805-.78V3.432c0-.481-.315-.772-.805-.772h-1.76c-.49 0-.805.29-.805.772V13.7c0 .481.316.78.806.78h1.76zm4.317 0c.49 0 .805-.299.805-.78V5.291c0-.481-.316-.78-.805-.78h-1.768c-.49 0-.797.299-.797.78V13.7c0 .481.307.78.797.78h1.768zm-8.633 0c.49 0 .805-.299.805-.78V7.018c0-.473-.315-.78-.805-.78H3.61c-.49 0-.805.307-.805.78V13.7c0 .481.315.78.805.78h1.76zm12.95 0c.489 0 .804-.299.804-.78V8.703c0-.481-.315-.78-.805-.78h-1.76c-.49 0-.805.299-.805.78V13.7c0 .481.316.78.805.78h1.76zm.804 2.856a.806.806 0 0 0 .822-.814.806.806 0 0 0-.822-.813H2.815a.806.806 0 0 0-.823.813c0 .465.366.814.822.814h16.311z" fill="currentColor"/>
    </g>
</svg>
