<svg viewBox="0 0 21 20" xmlns="http://www.w3.org/2000/svg">
    <g fill="none" fill-rule="evenodd">
        <path fill="none" d="M.809 0h20v20h-20z"/>
        <path d="M19.07 17.86a.806.806 0 0 0 .821-.813.806.806 0 0 0-.822-.814H3.59c-.175 0-.233-.058-.233-.232v-3.52l3.42-3.511a.3.3 0 0 1 .216-.108c.066 0 .149.033.224.108l2.963 3.063c.374.407.772.58 1.187.58.415 0 .797-.182 1.195-.572l3.412-3.428 1.303 1.311c.349.35.839.142.971-.356l1.246-4.89c.124-.456-.283-.846-.74-.73l-4.872 1.245c-.498.133-.714.606-.357.963l1.295 1.303-3.229 3.279c-.066.075-.15.116-.216.116-.074 0-.149-.041-.224-.116L8.187 7.675c-.382-.399-.78-.581-1.195-.581-.415 0-.78.166-1.187.58l-2.45 2.483V2.952a.806.806 0 0 0-.813-.822.806.806 0 0 0-.813.822v14.194c0 .432.282.714.714.714h16.626z" fill="currentColor"/>
    </g>
</svg>
