<svg viewBox="0 0 21 20" xmlns="http://www.w3.org/2000/svg">
    <g fill="none" fill-rule="evenodd">
        <path fill="none" d="M.655 0h20v20h-20z"/>
        <path d="M10.65 18.582c4.69 0 8.575-3.877 8.575-8.575 0-4.69-3.885-8.575-8.583-8.575-4.69 0-8.567 3.885-8.567 8.575 0 4.698 3.885 8.575 8.575 8.575zm0-1.686a6.866 6.866 0 0 1-6.881-6.89A6.852 6.852 0 0 1 9.994 3.15v7.031c0 .224.067.382.224.54l4.765 4.648a6.866 6.866 0 0 1-4.333 1.527zm.664-7.728V3.15a6.86 6.86 0 0 1 5.105 3.097l-5.105 2.921zm4.64 5.247-4.092-4.035 5.171-2.963c.324.797.498 1.677.507 2.59a6.88 6.88 0 0 1-1.586 4.408z" fill="currentColor"/>
    </g>
</svg>
