<svg viewBox="0 0 20 20" xmlns="http://www.w3.org/2000/svg">
    <g fill="none" fill-rule="evenodd">
        <rect fill="#FFF" width="20" height="20" rx="4"/>
        <path d="M15.026 17.776c1.801 0 2.731-.93 2.731-2.706V4.968c0-1.776-.93-2.706-2.73-2.706H4.973c-1.793 0-2.731.922-2.731 2.706V15.07c0 1.777.938 2.706 2.73 2.706h10.053zM9.1 14.107c-.315 0-.572-.132-.805-.44L6.26 11.202a.936.936 0 0 1-.224-.59c0-.43.34-.78.772-.78.258 0 .457.092.673.366l1.593 2.017 3.429-5.479c.174-.29.415-.431.672-.431.423 0 .805.29.805.73 0 .191-.1.399-.216.581l-3.893 6.051a.886.886 0 0 1-.772.44z" fill="currentColor"/>
    </g>
</svg>
