<svg xmlns="http://www.w3.org/2000/svg">
    <g fill="none" fill-rule="evenodd">
        <path fill="none" d="M0 0h20v20H0z"/>
        <path d="M15.026 17.754c1.801 0 2.731-.93 2.731-2.706V4.946c0-1.776-.93-2.706-2.73-2.706H4.973c-1.793 0-2.731.921-2.731 2.706v10.102c0 1.776.938 2.706 2.73 2.706h10.053zm-.108-1.652H5.082c-.764 0-1.187-.398-1.187-1.203V5.095c0-.805.423-1.203 1.187-1.203h9.836c.756 0 1.187.398 1.187 1.203V14.9c0 .805-.431 1.203-1.187 1.203zm-5.802-2.175c.299 0 .556-.149.739-.415l3.743-5.827c.108-.174.208-.373.208-.564 0-.415-.365-.697-.764-.697-.249 0-.473.149-.647.423l-3.304 5.28-1.544-1.951c-.2-.258-.398-.35-.647-.35a.733.733 0 0 0-.73.74c0 .199.074.39.215.564l1.959 2.382c.224.283.465.415.772.415z" fill="currentColor"/>
    </g>
</svg>
