<svg viewBox="0 0 24 24"
    xmlns="http://www.w3.org/2000/svg">
    <g fill="none" fill-rule="evenodd">
        <path fill="none" d="M0 0h24v24H0z"/>
        <path d="M18.502 22C20.795 22 22 20.795 22 18.527V5.473C22 3.213 20.795 2 18.502 2H5.498C3.213 2 2 3.205 2 5.473v13.054C2 20.803 3.213 22 5.498 22h13.004zm-.166-2.094H5.664c-1.013 0-1.562-.523-1.562-1.587V5.681c0-1.055.549-1.579 1.562-1.579h12.672c1.005 0 1.562.524 1.562 1.579v12.638c0 1.064-.557 1.587-1.562 1.587zm-7.47-2.817c.365 0 .681-.19.897-.515L16.7 8.938c.133-.208.24-.449.24-.673 0-.507-.448-.864-.938-.864-.316 0-.59.183-.806.523l-4.362 6.922-2.086-2.576c-.233-.307-.482-.415-.781-.415a.904.904 0 0 0-.906.914c0 .249.092.465.266.69l2.6 3.123c.267.341.566.507.94.507z" fill="currentColor"/>
    </g>
</svg>
