<svg viewBox="0 0 20 20"
    xmlns="http://www.w3.org/2000/svg">
    <g fill="currentColor" fill-rule="evenodd">
        <path fill="none" d="M0 0h20v20H0z"/>
        <path d="M17.884 12.704 19.81 10c.361-.505.2-.963-.425-.963H18.26c-.474-4.07-4.005-7.336-8.26-7.336a8.115 8.115 0 0 0-5.963 2.633c-.393.385-.377.899-.056 1.196.329.305.803.305 1.204-.065a6.548 6.548 0 0 1 4.816-2.103 6.622 6.622 0 0 1 6.581 5.675h-1.228c-.618 0-.786.458-.425.955l1.918 2.713c.297.402.747.41 1.036 0zm-7.882 5.603a8.13 8.13 0 0 0 5.98-2.641c.385-.385.369-.899.048-1.196-.33-.305-.795-.305-1.204.072a6.5 6.5 0 0 1-4.824 2.103 6.62 6.62 0 0 1-6.574-5.674h1.22c.61 0 .787-.458.426-.956L3.147 7.302c-.289-.4-.738-.409-1.027 0L.193 10.007c-.369.506-.2.964.426.964H1.75c.473 4.069 4.005 7.336 8.25 7.336z" fill="currentColor" />
    </g>
</svg>
