<svg xmlns="http://www.w3.org/2000/svg">
    <g fill="none" fill-rule="evenodd">
        <path fill="none" d="M0 0h20v20H0z"/>
        <path d="m10.328 14.93 3.951-3.95a.528.528 0 0 0-.013-.745c-.192-.212-.52-.185-.725.013l-3.91 3.91c-.998 1.005-2.331.916-3.193.055-.86-.861-.95-2.187.055-3.192L11.9 5.607c.56-.56 1.43-.718 2.017-.137.581.595.424 1.456-.137 2.01l-5.304 5.318c-.226.226-.486.15-.63.007-.143-.15-.211-.403.008-.63l3.664-3.656c.198-.205.218-.513.013-.711a.492.492 0 0 0-.704.02L7.15 11.506c-.587.588-.574 1.51-.04 2.037.574.574 1.442.554 2.03-.04l5.345-5.34c1.046-1.052 1.046-2.447.096-3.397-.93-.93-2.351-.957-3.404.095L5.72 10.323c-1.367 1.368-1.3 3.37-.034 4.642 1.271 1.258 3.274 1.333 4.641-.034z" fill="currentColor"/>
    </g>
</svg>
