<svg viewBox="0 0 20 20" xmlns="http://www.w3.org/2000/svg">
    <g fill="none" fill-rule="evenodd">
        <path fill="none" d="M0 0h20v20H0z"/>
        <path d="m10.44 17.668 6.176-6.167c.282-.282.282-.797-.009-1.063-.274-.298-.738-.257-1.029.017L9.444 16.59C7.892 18.15 5.8 18 4.464 16.656c-1.354-1.345-1.503-3.42.066-4.989l8.384-8.384c.913-.913 2.274-1.07 3.162-.182.888.896.722 2.25-.19 3.154l-8.227 8.243c-.365.373-.797.265-1.062.016-.241-.257-.34-.689.025-1.062l5.735-5.736c.29-.299.308-.73.025-1.013-.282-.266-.714-.257-1.004.033l-5.76 5.761c-.897.897-.864 2.266-.067 3.063.863.863 2.166.838 3.063-.058l8.267-8.276c1.61-1.602 1.553-3.719.141-5.13C15.636.718 13.486.62 11.876 2.23l-8.434 8.442c-2.1 2.108-1.959 5.13-.041 7.047 1.91 1.901 4.939 2.05 7.039-.05z" fill="currentColor"/>
    </g>
</svg>
