<svg viewBox="0 0 21 20" xmlns="http://www.w3.org/2000/svg">
    <g fill="none" fill-rule="evenodd">
        <path fill="none" d="M.809 0h20v20h-20z"/>
        <path d="M17.906 17.179c1.793 0 2.723-.93 2.723-2.698V5.508c0-1.777-.93-2.698-2.723-2.698H3.712c-1.793 0-2.723.921-2.723 2.698v8.973c0 1.776.93 2.698 2.723 2.698h14.194zm1.096-10.924H2.616v-.606c0-.805.423-1.212 1.195-1.212h13.995c.764 0 1.196.407 1.196 1.212v.606zm-1.196 9.297H3.811c-.772 0-1.195-.407-1.195-1.212V8.189h16.386v6.15c0 .806-.432 1.213-1.196 1.213zM6.974 14.04c.481 0 .813-.324.813-.797v-1.536c0-.464-.332-.796-.813-.796H4.94c-.49 0-.822.332-.822.796v1.536c0 .473.332.797.822.797h2.034z" fill="currentColor"/>
    </g>
</svg>
