<svg viewBox="0 0 21 20" xmlns="http://www.w3.org/2000/svg">
    <g fill="none" fill-rule="evenodd">
        <path fill="none" d="M.345 0h20v20h-20z"/>
        <path d="M14.482 17.686c1.313 0 1.992-.633 2.298-1.885l1.496-6.092c1.122 0 2.069-.939 2.069-2.099a2.093 2.093 0 0 0-2.092-2.084 2.098 2.098 0 0 0-2.091 2.084c0 .237.038.458.106.664l-1.816 1.122c-.245.153-.39.115-.527-.076L11.55 6.114c.534-.374.885-1 .885-1.71a2.093 2.093 0 0 0-2.091-2.084c-1.16 0-2.092.931-2.092 2.084 0 .71.351 1.336.893 1.718l-2.39 3.213c-.121.176-.259.206-.488.069l-1.84-1.137a2.097 2.097 0 0 0-1.985-2.74c-1.16 0-2.098.938-2.098 2.083 0 1.153.931 2.084 2.068 2.1L3.91 15.8c.305 1.253.992 1.886 2.297 1.886h8.275zM10.345 5.167a.76.76 0 1 1 .756-.763c0 .42-.329.763-.756.763zm5.595 8.283H4.757l-.97-3.954 1.985 1.198c.596.359 1.45.328 1.985-.39l2.595-3.488 2.611 3.512c.511.702 1.366.732 1.924.404l2.015-1.221-.962 3.939zM2.444 8.38a.779.779 0 0 1-.771-.77c0-.42.351-.757.77-.757.406 0 .757.351.757.756 0 .42-.336.771-.756.771zm15.81 0a.767.767 0 0 1-.764-.77.77.77 0 0 1 .763-.757c.412 0 .763.336.763.756s-.35.771-.763.771zm-3.757 7.924H6.2c-.512 0-.802-.23-.916-.703l-.191-.763h10.504l-.184.763c-.114.474-.412.703-.916.703z" fill="currentColor"/>
    </g>
</svg>
