<svg viewBox="0 0 21 20" xmlns="http://www.w3.org/2000/svg">
    <g fill="none" fill-rule="evenodd">
        <path fill="none" d="M.962 0h20v20h-20z"/>
        <path d="M15.383 18.997c1.776 0 2.697-.938 2.697-2.723V8.745c0-1.154-.149-1.685-.871-2.415L12.85 1.897c-.697-.706-1.27-.872-2.308-.872h-4c-1.777 0-2.698.938-2.698 2.723v12.526c0 1.793.92 2.723 2.697 2.723h8.84zm-.141-1.627H6.675c-.805 0-1.204-.424-1.204-1.196V3.848c0-.764.399-1.196 1.204-1.196h3.536v4.55c0 1.186.59 1.759 1.768 1.759h4.474v7.213c0 .772-.406 1.196-1.211 1.196zm.987-9.837h-4.1c-.34 0-.482-.15-.482-.49V2.876l4.582 4.657z" fill="currentColor"/>
    </g>
</svg>
