<svg viewBox="0 0 24 24" xmlns="http://www.w3.org/2000/svg">
    <g fill="none" fill-rule="evenodd">
        <path fill="none" d="M0 0h24v24H0z"/>
        <path d="M4.101 14.234c1.237 0 2.258-1.013 2.258-2.233 0-1.262-.988-2.241-2.258-2.241a2.242 2.242 0 0 0-2.241 2.241 2.251 2.251 0 0 0 2.241 2.233zm7.894 0a2.251 2.251 0 0 0 2.241-2.233c0-1.262-.979-2.241-2.24-2.241a2.235 2.235 0 0 0-2.234 2.241 2.244 2.244 0 0 0 2.233 2.233zm7.903 0c1.22 0 2.24-1.013 2.24-2.233a2.216 2.216 0 0 0-2.24-2.241 2.24 2.24 0 0 0-2.258 2.241c0 1.22 1.004 2.233 2.258 2.233z" fill="#000"/>
    </g>
</svg>
