<svg xmlns="http://www.w3.org/2000/svg">
    <g fill="none" fill-rule="evenodd">
        <path fill="none" d="M0 0h20v20H0z"/>
        <path d="M3.8 11.775c.97 0 1.776-.797 1.776-1.76 0-.988-.78-1.76-1.777-1.76-.98 0-1.768.789-1.768 1.76 0 .963.789 1.76 1.768 1.76zm6.2 0c.963 0 1.751-.797 1.751-1.76 0-.988-.772-1.76-1.751-1.76a1.76 1.76 0 0 0-1.76 1.76c0 .963.789 1.76 1.76 1.76zm6.2 0c.964 0 1.769-.797 1.769-1.76 0-.988-.78-1.76-1.768-1.76s-1.777.789-1.777 1.76c0 .963.789 1.76 1.777 1.76z" fill="currentColor" />
    </g>
</svg>
