<svg viewBox="0 0 21 20" xmlns="http://www.w3.org/2000/svg">
    <g fill="none" fill-rule="evenodd">
        <path fill="none" d="M.191 0h20v20h-20z"/>
        <path d="M7.029 13.223c.564 0 .92-.357.938-.955l.1-9.04v-.107c0-.63-.45-1.021-1.047-1.021s-1.054.39-1.054 1.021c0 .033.008.066.008.108l.108 9.04c.017.597.374.954.947.954zm6.341 0c.573 0 .93-.357.938-.955l.1-9.04c0-.04.008-.074.008-.107 0-.63-.448-1.021-1.054-1.021-.598 0-1.046.39-1.046 1.021v.108l.116 9.04c.009.597.366.954.938.954zm-6.35 4.69c.756 0 1.362-.598 1.362-1.336 0-.748-.606-1.337-1.362-1.337-.747 0-1.361.59-1.361 1.337 0 .738.614 1.336 1.361 1.336zm6.342 0c.755 0 1.361-.598 1.361-1.336 0-.748-.606-1.337-1.361-1.337-.747 0-1.361.59-1.361 1.337 0 .738.614 1.336 1.361 1.336z" fill="currentColor"/>
    </g>
</svg>
