<svg viewBox="0 0 20 20" xmlns="http://www.w3.org/2000/svg">
    <g fill="none" fill-rule="evenodd">
        <path fill="none" d="M0 0h20v20H0z"/>
        <path d="m8.102 15.732 1.682 1.12a.4.4 0 0 0 .443 0l1.676-1.12a.4.4 0 0 0-.222-.733H8.323a.4.4 0 0 0-.221.733zM17 6a3 3 0 0 1 3 3v2a3 3 0 0 1-3 3H3a3 3 0 0 1-3-3V9a3 3 0 0 1 3-3h14zm-.5 1.5h-13a2 2 0 0 0-2 2v1a2 2 0 0 0 2 2h13a2 2 0 0 0 2-2v-1a2 2 0 0 0-2-2zM8.102 4.266l1.682-1.119a.4.4 0 0 1 .443 0l1.676 1.12a.4.4 0 0 1-.222.732H8.323a.4.4 0 0 1-.221-.733z" fill="#000"/>
    </g>
</svg>
