<svg viewBox="0 0 21 20" xmlns="http://www.w3.org/2000/svg">
    <g fill="none" fill-rule="evenodd">
        <path fill="none" d="M.116 0h20v20h-20z"/>
        <path d="M10.11 18.582c4.69 0 8.575-3.877 8.575-8.575 0-4.69-3.884-8.575-8.583-8.575-4.69 0-8.566 3.885-8.566 8.575 0 4.698 3.885 8.575 8.575 8.575zm0-1.686a6.866 6.866 0 0 1-6.88-6.89 6.852 6.852 0 0 1 6.872-6.88A6.878 6.878 0 0 1 17 10.005a6.873 6.873 0 0 1-6.89 6.89zM7.655 9.26c.523 0 .988-.473.988-1.13 0-.655-.457-1.128-.988-1.128-.515 0-.963.473-.963 1.129s.448 1.129.963 1.129zm4.897 0c.523 0 .988-.473.988-1.13 0-.655-.465-1.128-.988-1.128-.523 0-.963.473-.963 1.129s.449 1.129.963 1.129zm-2.449 4.83c1.744 0 2.914-1.153 2.914-1.71 0-.198-.2-.29-.39-.207-.606.316-1.312.69-2.524.69-1.203 0-1.917-.374-2.523-.69-.183-.091-.382.009-.382.208 0 .556 1.17 1.71 2.905 1.71z" fill="currentColor"/>
    </g>
</svg>
