<svg viewBox="0 0 21 20" version="1.1" xmlns="http://www.w3.org/2000/svg">
    <g id="Page-1" stroke="none" stroke-width="1" fill="none" fill-rule="evenodd">
        <g id="web-_-modal-_-リスト編集" transform="translate(-2880.000000, -481.000000)">
            <g id="Group-78" transform="translate(2494.000000, 413.000000)">
                <g id="Group-70" transform="translate(12.000000, 12.000000)">
                    <g id="Rectangle-Copy-62" transform="translate(362.232082, 44.000000)">
                        <g id="file" transform="translate(12.576792, 12.000000)">
                            <rect id="Rectangle" fill-opacity="0" fill="#FFFFFF" x="0" y="0" width="20" height="20"></rect>
                            <path d="M17.0002539,17.6601562 C18.5857031,17.6601562 19.5070898,16.7387695 19.5070898,14.9624023 L19.5070898,6.42919922 C19.5070898,4.65283203 18.5774023,3.73144531 16.7844336,3.73144531 L9.06470703,3.73144531 C8.46705078,3.73144531 8.11841797,3.59033203 7.661875,3.21679688 L7.18042969,2.83496094 C6.599375,2.35351562 6.16773438,2.19580078 5.30445313,2.19580078 L2.95533203,2.19580078 C1.40308594,2.19580078 0.49,3.10058594 0.49,4.84375 L0.49,14.9624023 C0.49,16.7387695 1.4196875,17.6601562 3.21265625,17.6601562 L17.0002539,17.6601562 Z M17.8801367,7.05175781 L2.11695313,7.05175781 L2.11695313,4.98486328 C2.11695313,4.22119141 2.53199219,3.82275391 3.2790625,3.82275391 L4.8728125,3.82275391 C5.46216797,3.82275391 5.8025,3.95556641 6.26734375,4.33740234 L6.74878906,4.72753906 C7.32154297,5.20068359 7.76978516,5.35839844 8.63306641,5.35839844 L16.693125,5.35839844 C17.4567969,5.35839844 17.8801367,5.75683594 17.8801367,6.5703125 L17.8801367,7.05175781 Z M16.693125,16.0332031 L3.31226563,16.0332031 C2.54029297,16.0332031 2.11695313,15.6347656 2.11695313,14.8295898 L2.11695313,8.48779297 L17.8801367,8.48779297 L17.8801367,14.8295898 C17.8801367,15.6347656 17.4567969,16.0332031 16.693125,16.0332031 Z" fill="currentColor"></path>
                        </g>
                    </g>
                </g>
            </g>
        </g>
    </g>
</svg>