<svg viewBox="0 0 21 20" xmlns="http://www.w3.org/2000/svg">
    <g fill="none" fill-rule="evenodd">
        <path fill="none" d="M.502 0h20v20h-20z"/>
        <path d="M7.592 19.79c.73 0 1.179-.415 1.17-1.112l-.165-9.405c0-.34.116-.54.39-.664 1.129-.507 1.635-1.038 1.56-2.574L10.315.947c-.025-.39-.25-.614-.606-.614-.357 0-.564.24-.564.63l.066 4.94c0 .307-.191.49-.465.49-.282 0-.473-.175-.481-.465L8.182.806C8.173.432 7.949.2 7.592.2s-.58.232-.59.606L6.92 5.928c0 .282-.2.464-.482.464-.273 0-.464-.182-.456-.49L6.04.965c0-.39-.207-.631-.564-.631s-.581.232-.606.614l-.233 5.088c-.075 1.536.432 2.067 1.56 2.574.275.124.39.323.39.664l-.165 9.405c-.017.697.44 1.112 1.17 1.112zm7.595 0c.74 0 1.188-.382 1.188-1.071V.847c0-.431-.283-.647-.615-.647-.315 0-.54.174-.813.564-1.353 1.901-2.283 5.554-2.283 8.874v.44c0 .598.208 1.004.664 1.32l.448.299c.3.207.424.431.415.755l-.166 6.192c-.025.73.44 1.146 1.162 1.146z" fill="currentColor"/>
    </g>
</svg>
