<svg xmlns="http://www.w3.org/2000/svg" xmlns:xlink="http://www.w3.org/1999/xlink">
    <defs>
        <path d="M16.354 6.926H8.466v3.271h4.54c-.423 2.078-2.193 3.271-4.54 3.271a4.992 4.992 0 0 1-5.003-5.002 4.992 4.992 0 0 1 5.003-5.003c1.192 0 2.27.423 3.116 1.116l2.463-2.463C12.545.808 10.62 0 8.465 0A8.441 8.441 0 0 0 0 8.466a8.441 8.441 0 0 0 8.466 8.465c4.232 0 8.08-3.078 8.08-8.465 0-.5-.077-1.04-.192-1.54z" id="a"/>
        <path d="M16.354 6.926H8.466v3.271h4.54c-.423 2.078-2.193 3.271-4.54 3.271a4.992 4.992 0 0 1-5.003-5.002 4.992 4.992 0 0 1 5.003-5.003c1.192 0 2.27.423 3.116 1.116l2.463-2.463C12.545.808 10.62 0 8.465 0A8.441 8.441 0 0 0 0 8.466a8.441 8.441 0 0 0 8.466 8.465c4.232 0 8.08-3.078 8.08-8.465 0-.5-.077-1.04-.192-1.54z" id="c"/>
        <path d="M16.354 6.926H8.466v3.271h4.54c-.423 2.078-2.193 3.271-4.54 3.271a4.992 4.992 0 0 1-5.003-5.002 4.992 4.992 0 0 1 5.003-5.003c1.192 0 2.27.423 3.116 1.116l2.463-2.463C12.545.808 10.62 0 8.465 0A8.441 8.441 0 0 0 0 8.466a8.441 8.441 0 0 0 8.466 8.465c4.232 0 8.08-3.078 8.08-8.465 0-.5-.077-1.04-.192-1.54z" id="e"/>
        <path d="M16.354 6.926H8.466v3.271h4.54c-.423 2.078-2.193 3.271-4.54 3.271a4.992 4.992 0 0 1-5.003-5.002 4.992 4.992 0 0 1 5.003-5.003c1.192 0 2.27.423 3.116 1.116l2.463-2.463C12.545.808 10.62 0 8.465 0A8.441 8.441 0 0 0 0 8.466a8.441 8.441 0 0 0 8.466 8.465c4.232 0 8.08-3.078 8.08-8.465 0-.5-.077-1.04-.192-1.54z" id="g"/>
    </defs>
    <g fill="none" fill-rule="evenodd">
        <path fill="none" d="M0 0h20v20H0z"/>
        <g transform="translate(1.667 1.667)">
            <mask id="b" fill="#fff">
                <use xlink:href="#a"/>
            </mask>
            <path fill="#FBBC05" fill-rule="nonzero" mask="url(#b)" d="M-.77 13.468V3.463l6.542 5.003z"/>
        </g>
        <g transform="translate(1.667 1.667)">
            <mask id="d" fill="#fff">
                <use xlink:href="#c"/>
            </mask>
            <path fill="#EA4335" fill-rule="nonzero" mask="url(#d)" d="m-.77 3.463 6.542 5.003 2.694-2.348 9.235-1.5V-.77H-.77z"/>
        </g>
        <g transform="translate(1.667 1.667)">
            <mask id="f" fill="#fff">
                <use xlink:href="#e"/>
            </mask>
            <path fill="#34A853" fill-rule="nonzero" mask="url(#f)" d="m-.77 13.468 11.544-8.85 3.04.384L17.701-.77V17.7H-.77z"/>
        </g>
        <g transform="translate(1.667 1.667)">
            <mask id="h" fill="#fff">
                <use xlink:href="#g"/>
            </mask>
            <path fill="#4285F4" fill-rule="nonzero" mask="url(#h)" d="M17.7 17.7 5.773 8.467 4.232 7.31l13.469-3.848z"/>
        </g>
    </g>
</svg>
