<svg viewBox="0 0 21 20" xmlns="http://www.w3.org/2000/svg">
    <g fill="none" fill-rule="evenodd">
        <path fill="none" d="M.345 0h20v20h-20z"/>
        <path d="M5.754 18.915c.615 0 1.014-.398 1.014-1.006V15.96c0-.47-.24-.811-.623-.949v-.195c1.144.456 2.57.731 4.2.731 4.257 0 7.154-1.84 7.154-4.135V8.148l2.056-.942c.515-.231.79-.688.79-1.173 0-.478-.275-.941-.79-1.173l-7.154-3.266c-.79-.362-1.426-.521-2.056-.514-.63-.007-1.267.152-2.057.514L1.127 4.86c-.507.232-.782.695-.782 1.173 0 .485.275.942.782 1.173l2.063.942v3.265c0 1.123.688 2.13 1.89 2.875v.724c-.39.13-.63.478-.63.949v1.948c0 .608.399 1.006 1.014 1.006h.29zm4.59-9.32c-.463 0-.912-.122-1.513-.397l-1.933-.884 2.78-1.455c.218.058.45.087.688.087.826 0 1.615-.377 1.615-.913 0-.521-.79-.898-1.615-.898s-1.622.377-1.622.898c0 .073.015.138.037.203L5.754 7.8 2.358 6.258c-.116-.058-.174-.13-.174-.225 0-.087.058-.166.174-.217l6.473-2.94c.601-.282 1.05-.398 1.514-.398.463 0 .912.116 1.513.398l6.474 2.94c.116.05.173.13.173.217 0 .094-.057.167-.173.225l-6.474 2.94c-.6.275-1.05.398-1.513.398zM5.08 12.602c-.333-.37-.514-.775-.514-1.188V8.778l.514.239V12.6zm5.265 1.644c-1.745 0-3.194-.34-4.2-.862V9.502l2.143.977c.79.355 1.427.522 2.057.514.63.008 1.267-.159 2.056-.514l3.722-1.701v2.635c0 1.478-2.295 2.832-5.778 2.832z" fill="currentColor"/>
    </g>
</svg>
