<svg xmlns="http://www.w3.org/2000/svg">
    <g fill="none" fill-rule="evenodd">
        <path fill="none" d="M0 0h24v24H0z"/>
        <path d="M20.763 6.51c.695 0 1.237-.484 1.237-1.095 0-.621-.542-1.105-1.237-1.105H3.226C2.542 4.31 2 4.794 2 5.415c0 .611.531 1.095 1.226 1.095h17.537zm0 6.59c.695 0 1.237-.483 1.237-1.104 0-.611-.542-1.095-1.237-1.095H3.226C2.542 10.9 2 11.376 2 11.996c0 .621.531 1.105 1.226 1.105h17.537zm0 6.592c.695 0 1.237-.484 1.237-1.105 0-.612-.542-1.095-1.237-1.095H3.226c-.684 0-1.226.474-1.226 1.095 0 .62.531 1.105 1.226 1.105h17.537z" fill="currentColor" />
    </g>
</svg>
