<svg viewBox="0 0 21 20" xmlns="http://www.w3.org/2000/svg">
    <g fill="none" fill-rule="evenodd">
        <path fill="none" d="M.27 0h20v20h-20z"/>
        <path d="M10.263 17.76c.216 0 .523-.157.772-.315 4.64-2.988 7.612-6.49 7.612-10.044 0-3.046-2.1-5.171-4.823-5.171-1.577 0-2.814.73-3.56 1.826C9.532 2.97 8.287 2.23 6.701 2.23c-2.714 0-4.822 2.125-4.822 5.171 0 3.553 2.971 7.056 7.611 10.044.258.158.565.316.772.316zm0-1.767c-.033 0-.083-.034-.157-.083-3.495-2.325-6.55-5.57-6.55-8.509 0-2.108 1.378-3.527 3.238-3.527 1.502 0 2.34.913 2.863 1.71.233.332.39.44.606.44.225 0 .357-.117.606-.44.557-.79 1.378-1.71 2.872-1.71 1.86 0 3.238 1.419 3.238 3.527 0 2.939-3.063 6.184-6.558 8.509-.075.05-.124.083-.158.083z" fill="currentColor"/>
    </g>
</svg>
