<svg viewBox="0 0 21 20" xmlns="http://www.w3.org/2000/svg">
    <g fill="none" fill-rule="evenodd">
        <path fill="none" d="M.191 0h20v20h-20z"/>
        <path d="M15.8 18.778c1.256 0 1.978-.714 1.978-1.92V8.905l1.256 1.05a.718.718 0 0 0 .476.173c.394 0 .681-.254.681-.64 0-.246-.098-.427-.312-.59l-2.1-1.765V3.53c0-.37-.239-.6-.6-.6h-1.108c-.36 0-.607.23-.607.6v1.65l-4.218-3.538c-.649-.55-1.453-.55-2.11 0L.496 8.897c-.205.164-.304.345-.304.591 0 .386.28.64.681.64a.718.718 0 0 0 .476-.172l1.256-1.059v7.96c0 1.215.73 1.921 1.978 1.921H15.8zm-.238-1.354H4.828c-.566 0-.862-.295-.862-.862V7.756L9.9 2.791c.18-.156.402-.164.59 0l5.926 4.965v8.806c0 .567-.287.862-.854.862zM13.84 16.07c.796 0 1.223-.386 1.223-1.116v-6.5l-4.3-3.611c-.353-.287-.788-.287-1.133 0l-4.3 3.603v6.508c0 .73.426 1.116 1.214 1.116h7.296zm-.59-1.354H7.141c-.295 0-.451-.156-.451-.443V9.11l3.225-2.709a.423.423 0 0 1 .55 0l3.225 2.709v5.162c0 .287-.156.443-.443.443zm-1.79-1.346c.558 0 .878-.304.878-.829V9.775l-1.641-1.378c-.312-.263-.69-.271-1.01 0L8.053 9.775v2.766c0 .525.32.829.87.829h2.536zm-.648-1.321H9.57c-.123 0-.18-.058-.18-.18V10.39l.615-.517c.115-.099.263-.099.37 0l.623.517v1.477c0 .123-.065.18-.188.18z" fill="currentColor"/>
    </g>
</svg>
