<svg viewBox="0 0 21 20" xmlns="http://www.w3.org/2000/svg">
    <g fill="none" fill-rule="evenodd">
        <path fill="none" d="M.884 0h20v20h-20z"/>
        <path d="M10.78 6.105c.747 0 1.328-.59 1.328-1.329 0-.747-.58-1.336-1.328-1.336-.739 0-1.328.59-1.328 1.336 0 .74.59 1.329 1.328 1.329zm2.706 10.467c.573 0 .947-.34.947-.88.008-.531-.366-.872-.947-.872h-1.452V8.877c0-.564-.366-.921-.913-.921H8.514c-.581 0-.955.34-.946.871 0 .54.373.88.946.88h1.619v5.113H8.282c-.581 0-.947.34-.947.872 0 .54.374.88.947.88h5.204z" fill="currentColor"/>
    </g>
</svg>
