<svg viewBox="0 0 20 20"
    xmlns="http://www.w3.org/2000/svg">
    <g fill="none" fill-rule="evenodd">
        <path fill="none" d="M0 0h20v20H0z"/>
        <path d="M10.069 18.59c4.706 0 8.591-3.885 8.591-8.583s-3.893-8.583-8.6-8.583c-4.698 0-8.574 3.885-8.574 8.583s3.885 8.583 8.583 8.583z" fill="currentColor"/>
        <path d="M10.069 16.88a6.84 6.84 0 0 1-6.857-6.873 6.832 6.832 0 0 1 6.849-6.865 6.86 6.86 0 0 1 6.88 6.865 6.85 6.85 0 0 1-6.872 6.873z" fill="#FFF"/>
        <path d="M10.069 15.211c2.847 0 5.196-2.365 5.196-5.196 0-2.839-2.366-5.196-5.196-5.196-2.839 0-5.188 2.357-5.188 5.196 0 2.83 2.357 5.196 5.188 5.196z" fill="#007AFF"/>
    </g>
</svg>
