<svg viewBox="0 0 20 20" xmlns="http://www.w3.org/2000/svg">
    <g fill="none" fill-rule="evenodd">
        <path fill="none" d="M0 0h20v20H0z"/>
        <path d="M13.071 15.587c.332 0 .556-.224.556-.556v-1.27c0-2.01 2.947-3.27 2.947-6.94C16.574 2.936 13.926.33 10 .33c-3.935 0-6.574 2.606-6.574 6.491 0 3.67 2.947 4.93 2.947 6.94v1.27c0 .332.224.556.556.556h6.142zm-.896-1.444H7.817v-.407c0-2.524-2.922-3.785-2.922-6.915C4.895 3.8 6.937 1.8 10 1.8c3.063 0 5.105 2 5.105 5.022 0 3.13-2.93 4.391-2.93 6.915v.406zm.656 3.751a.822.822 0 0 0 0-1.644H7.169a.822.822 0 0 0 0 1.644h5.662zM10 19.986c1.212 0 2.083-.564 2.167-1.42H7.825c.083.856.946 1.42 2.175 1.42z" fill-opacity=".87" fill="currentColor"/>
    </g>
</svg>
