<svg viewBox="0 0 20 20" xmlns="http://www.w3.org/2000/svg">
    <g fill="none" fill-rule="evenodd">
        <path fill="none" d="M0 0h20v20H0z"/>
        <path d="M4.602 12.48c-.055-.435-.09-.903-.02-1.31h-.4c-1.64 0-2.804-1.15-2.804-2.804 0-1.64 1.164-2.804 2.804-2.804h6.083c1.64 0 2.804 1.164 2.804 2.804 0 1.654-1.164 2.804-2.804 2.804H8.157c-.33.22-.303 1.047.124 1.31h2.067c2.39 0 4.1-1.689 4.1-4.114 0-2.418-1.71-4.106-4.1-4.106H4.099C1.71 4.26 0 5.948 0 8.366c0 2.425 1.709 4.113 4.1 4.113h.502zm11.292 3.258c2.397 0 4.106-1.688 4.106-4.106 0-2.425-1.709-4.113-4.106-4.113h-.496c.055.434.09.902.02 1.309h.4c1.64 0 2.804 1.15 2.804 2.804 0 1.64-1.164 2.804-2.804 2.804H9.735c-1.64 0-2.804-1.165-2.804-2.804 0-1.654 1.164-2.804 2.804-2.804h2.108c.33-.22.303-1.048-.124-1.31H9.652c-2.397 0-4.1 1.689-4.1 4.114 0 2.418 1.703 4.106 4.1 4.106h6.242z" fill="currentColor" fill-rule="nonzero"/>
    </g>
</svg>
