<svg viewBox="0 0 20 20" xmlns="http://www.w3.org/2000/svg">
    <g fill="none" fill-rule="evenodd">
        <path fill="none" d="M0 0h20v20H0z"/>
        <path d="M2.599 6.077c.655 0 1.178-.523 1.178-1.178a1.178 1.178 0 1 0-2.357 0c0 .655.531 1.178 1.179 1.178zm15.174-.381a.794.794 0 0 0 .805-.797.789.789 0 0 0-.805-.797H6.5a.792.792 0 0 0-.797.797c0 .448.349.797.797.797h11.273zM2.599 11.182c.655 0 1.178-.523 1.178-1.178a1.178 1.178 0 1 0-2.357 0c0 .655.531 1.178 1.179 1.178zm15.174-.381a.794.794 0 0 0 .805-.797.789.789 0 0 0-.805-.797H6.5a.792.792 0 0 0-.797.797c0 .448.349.797.797.797h11.273zM2.599 16.287c.655 0 1.178-.523 1.178-1.178a1.178 1.178 0 1 0-2.357 0c0 .655.531 1.178 1.179 1.178zm10.207-.381a.794.794 0 0 0 .805-.797.789.789 0 0 0-.805-.797H6.5a.792.792 0 0 0-.797.797c0 .448.349.797.797.797h6.306z" fill="currentColor"/>
    </g>
</svg>
