<svg viewBox="0 0 44 44" xmlns="http://www.w3.org/2000/svg">
    <defs>
        <linearGradient x1="0%" y1="23.92%" x2="100%" y2="76.08%" id="a">
            <stop stop-color="#007AFF" offset="0%"/>
            <stop stop-color="#3A65DF" offset="49.012%"/>
            <stop stop-color="#575ACF" offset="100%"/>
        </linearGradient>
    </defs>
    <g fill="none" fill-rule="evenodd">
        <rect fill="#F9F9F9" width="44" height="44" rx="8"/>
        <path fill="none" d="M12 12h20v20H12z"/>
        <path d="M2.237 6.439c.688 0 1.236-.541 1.236-1.22C3.473 4.55 2.925 4 2.237 4 1.557 4 1 4.55 1 5.22c0 .678.557 1.219 1.237 1.219zm15.918-.395c.47 0 .845-.361.845-.825 0-.463-.366-.824-.845-.824H6.33a.825.825 0 1 0 0 1.649h11.826zM2.237 11.719c.688 0 1.236-.54 1.236-1.219 0-.67-.548-1.22-1.236-1.22C1.557 9.28 1 9.83 1 10.5c0 .678.557 1.22 1.237 1.22zm15.918-.395c.47 0 .845-.36.845-.824 0-.464-.366-.824-.845-.824H6.33a.825.825 0 1 0 0 1.648h11.826zM2.237 17c.688 0 1.236-.541 1.236-1.22 0-.669-.548-1.219-1.236-1.219-.68 0-1.237.55-1.237 1.22C1 16.459 1.557 17 2.237 17zm10.708-.395c.47 0 .845-.36.845-.824 0-.464-.366-.825-.845-.825H6.329a.825.825 0 1 0 0 1.649h6.616z" fill="url(#a)" transform="translate(12 12)"/>
    </g>
</svg>
