<svg viewBox="0 0 21 20" xmlns="http://www.w3.org/2000/svg">
    <g fill="none" fill-rule="evenodd">
        <path fill="none" d="M.73 0h20v20h-20z"/>
        <path d="M14.62 18.257c1.278 0 1.917-.64 1.917-2.034v-5.877c0-1.228-.498-1.867-1.503-2V6.403c0-3.154-2.1-4.673-4.308-4.673-2.2 0-4.3 1.519-4.3 4.673v1.943c-1.004.133-1.502.772-1.502 2v5.877c0 1.395.63 2.034 1.917 2.034h7.778zM13.456 8.32H8.004V6.246c0-1.951 1.236-3.005 2.722-3.005s2.731 1.054 2.731 3.005V8.32zm.93 8.458H7.082c-.365 0-.548-.174-.548-.614v-5.76c0-.44.183-.598.548-.598h7.305c.365 0 .54.157.54.597v5.761c0 .44-.175.614-.54.614z" fill="currentColor"/>
    </g>
</svg>
