<svg width="27px" height="27px" viewBox="0 0 27 27" version="1.1"
    xmlns="http://www.w3.org/2000/svg"
    xmlns:xlink="http://www.w3.org/1999/xlink">
    <g id="Page-1" stroke="none" stroke-width="1" fill="none" fill-rule="evenodd">
        <g id="Glyph" fill="#FFFFFF" fill-rule="nonzero">
            <path d="M12.6703794,7.95608527 C12.9628563,7.75003916 13.4344329,7.74819194 13.7295319,7.95608527 L26.1795693,16.7269721 C26.4720462,16.9330182 26.475062,17.2649604 26.1790978,17.4734632 L22.7789203,19.8688433 L13.7286069,26.2446696 C13.4366409,26.4503557 12.9654784,26.4519112 12.6703794,26.2440179 L0.220342043,17.4731311 C-0.0721348462,17.267085 -0.0747569236,16.9348654 0.220342043,16.7269721 L12.6703794,7.95608527 Z" id="Head-Base" fill-opacity="0.6" style="mix-blend-mode: overlay;"></path>
            <path d="M0.220342043,13.5727025 C-0.0721348462,13.3666564 -0.0747569236,13.0344368 0.220342043,12.8265435 L12.6703794,4.05565667 C12.9628563,3.84961056 13.4344329,3.84776334 13.7295319,4.05565667 L26.1795693,12.8265435 C26.4720462,13.0325896 26.4746683,13.3648091 26.1795693,13.5727025 L13.7295319,22.3435893 C13.437055,22.5496354 12.9654784,22.5514826 12.6703794,22.3435893 L0.220342043,13.5727025 Z" id="Jowl" fill-opacity="0.7" style="mix-blend-mode: overlay;"></path>
            <path d="M0.220342043,9.67227386 C-0.0721348462,9.46622775 -0.0747569236,9.13400823 0.220342043,8.9261149 L12.6703794,0.155228058 C12.9628563,-0.050818046 13.4344329,-0.0526652651 13.7295319,0.155228058 L26.1795693,8.9261149 C26.4720462,9.13216101 26.4746683,9.46438053 26.1795693,9.67227386 L13.7295319,18.4431607 C13.437055,18.6492068 12.9654784,18.651054 12.6703794,18.4431607 L0.220342043,9.67227386 Z" id="Jowl-Copy" fill-opacity="0.9" style="mix-blend-mode: overlay;"></path>
            <path d="M13.7305708,0.155959908 L26.1785304,8.92538305 C26.3236484,9.02761669 26.3969602,9.16126569 26.3983831,9.295236 L26.3975178,9.37694922 L26.3960278,12.1499931 L26.3983831,17.1126427 C26.3983831,17.2267651 26.3187949,17.375179 26.2224107,17.44309 L22.7831397,19.8654142 L22.7789203,19.8688433 L13.7808145,26.2069494 L13.7116474,26.2519441 C13.6156281,26.3078808 13.5267561,26.343051 13.450052,26.3649868 L13.4184885,26.3734616 L13.4032722,26.3771515 L13.4032722,26.3771515 L13.3740221,26.3835144 C13.3645418,26.3854198 13.355336,26.3871165 13.3464184,26.3886254 L13.3205444,26.3926095 L13.2964833,26.3955918 L13.2743184,26.3976969 L13.2448088,26.3994837 L13.2200343,26.4 L13.2062872,26.4 L13.1858146,26.3989079 L13.1739082,26.3977943 L13.1978131,19.4398922 C13.1989689,19.1034688 12.9722124,18.6707616 12.6896184,18.4572991 L12.6693405,18.4424289 L0.221380884,9.6730057 C-0.0716697402,9.46655541 -0.0718983289,9.13199438 0.221380884,8.92538305 L12.6693405,0.155959908 C12.9623912,-0.0504903861 13.4372916,-0.0506514237 13.7305708,0.155959908 Z" id="Combined-Shape" opacity="0.939545"></path>
        </g>
    </g>
</svg>