<svg viewBox="0 0 622 660"
    xmlns="http://www.w3.org/2000/svg"
    xmlns:xlink="http://www.w3.org/1999/xlink">
    <g id="Page-1" stroke="none" stroke-width="1" fill="none" fill-rule="evenodd">
        <g id="web-_-トップ" transform="translate(-40.000000, -80.000000)" fill="#FFFFFF" fill-rule="nonzero">
            <g id="Icon" transform="translate(40.000000, 80.000000)">
                <path d="M298.496144,198.87322 C305.401388,193.71094 316.591616,193.706914 323.502246,198.87322 L616.817436,418.152228 C623.722681,423.314508 623.735927,431.674315 616.80674,436.854493 L536.711356,496.732867 L323.496419,656.12986 C316.594393,661.289735 305.406774,661.29181 298.496144,656.125504 L5.18095313,436.846496 C-1.72429097,431.684216 -1.72967726,423.318534 5.18095313,418.152228 L298.496144,198.87322 Z" id="Head-Base" fill-opacity="0.6" style="mix-blend-mode: overlay;"></path>
                <path d="M5.18096655,337.847159 C-1.72429543,332.684865 -1.72968174,324.319161 5.18096655,319.15284 L298.496917,99.8732305 C305.402179,94.7109368 316.592436,94.7069099 323.503084,99.8732305 L616.819033,319.15284 C623.724296,324.315135 623.729682,332.680839 616.819033,337.847159 L323.503084,557.126769 C316.597822,562.289064 305.407565,562.29309 298.496917,557.126769 L5.18096655,337.847159 Z" id="Jowl" fill-opacity="0.7" style="mix-blend-mode: overlay;"></path>
                <path d="M5.18096655,241.847159 C-1.72429543,236.684865 -1.72968174,228.319161 5.18096655,223.15284 L298.496917,3.87323061 C305.402179,-1.2890633 316.592436,-1.29309005 323.503084,3.87323061 L616.819033,223.15284 C623.724296,228.315135 623.729682,236.680839 616.819033,241.847159 L323.503084,461.126769 C316.597822,466.289064 305.407565,466.29309 298.496917,461.126769 L5.18096655,241.847159 Z" id="Jowl-Copy" fill-opacity="0.9" style="mix-blend-mode: overlay;"></path>
                <path d="M323.503342,3.87260864 L616.819526,223.117006 C620.238996,225.672948 621.966475,229.014309 622,232.363701 L621.979614,234.406613 L621.944503,303.735498 L622,427.806727 C622,430.659902 620.124634,434.370401 617.853494,436.068245 L536.791114,496.66545 L536.713174,496.714515 L324.314064,655.478549 C321.569905,657.364488 319.031089,658.475992 316.893368,659.124635 L316.149627,659.336514 C316.028602,659.368743 315.909073,659.399472 315.791077,659.428765 L315.101846,659.587843 C314.878458,659.635481 314.661536,659.677899 314.451408,659.715624 L313.841729,659.815231 L313.274767,659.889789 L312.752488,659.942422 L312.057141,659.987091 L311.473367,660 L311.149442,660 L310.667035,659.972696 L310.386484,659.944854 L310.94976,485.990304 C310.976996,477.579382 305.633845,466.761268 298.974973,461.424489 L298.497155,461.05272 L5.18097068,241.808323 C-1.72429681,236.646857 -1.72968312,228.282496 5.18097068,223.117006 L298.497155,3.87260864 C305.402423,-1.2888563 316.592688,-1.2928824 323.503342,3.87260864 Z" id="Path" opacity="0.939545"></path>
            </g>
        </g>
    </g>
</svg>