<svg width="224px" height="237px" viewBox="0 0 224 237" version="1.1"
    xmlns="http://www.w3.org/2000/svg"
    xmlns:xlink="http://www.w3.org/1999/xlink">
    <g id="Page-1" stroke="none" stroke-width="1" fill="none" fill-rule="evenodd" opacity="0.303539458">
        <g id="Icon" fill="#FFFFFF" fill-rule="nonzero">
            <path d="M107.497004,71.3910274 C109.98378,69.5370472 114.013701,69.5356013 116.502417,71.3910274 L222.133611,150.142843 C224.620387,151.996823 224.625157,154.999162 222.129759,156.859571 L193.285119,178.364277 L116.500318,235.610079 C114.014701,237.463195 109.985719,237.46394 107.497004,235.608514 L1.86580949,156.856699 C-0.620966523,155.002718 -0.62290628,151.998269 1.86580949,150.142843 L107.497004,71.3910274 Z" id="Head-Base" fill-opacity="0.6" style="mix-blend-mode: overlay;"></path>
            <path d="M1.86581432,121.856937 C-0.620968131,120.002951 -0.622907893,116.998494 1.86581432,115.143063 L107.497282,36.3910312 C109.984064,34.5370461 114.013996,34.5355999 116.502718,36.3910312 L222.134186,115.143063 C224.620968,116.997048 224.622908,120.001506 222.134186,121.856937 L116.502718,200.608969 C114.015936,202.462954 109.986004,202.4644 107.497282,200.608969 L1.86581432,121.856937 Z" id="Jowl" fill-opacity="0.7" style="mix-blend-mode: overlay;"></path>
            <path d="M1.86581432,86.8569368 C-0.620968131,85.0029515 -0.622907893,81.9984942 1.86581432,80.1430631 L107.497282,1.39103121 C109.984064,-0.462953916 114.013996,-0.464400083 116.502718,1.39103121 L222.134186,80.1430631 C224.620968,81.9970483 224.622908,85.0015056 222.134186,86.8569368 L116.502718,165.608969 C114.015936,167.462954 109.986004,167.4644 107.497282,165.608969 L1.86581432,86.8569368 Z" id="Jowl-Copy" fill-opacity="0.9" style="mix-blend-mode: overlay;"></path>
            <path d="M116.502811,1.39061856 L222.134363,80.1192884 C223.365812,81.0371041 223.987927,82.2369563 224,83.4396925 L223.992658,84.1732836 L223.980014,109.068656 L224,153.621507 C224,154.646056 223.324627,155.978462 222.506724,156.588143 L193.313842,178.348048 L193.285773,178.365667 L116.794776,235.376388 C115.806525,236.053611 114.892225,236.452743 114.122371,236.685664 L113.854528,236.761748 C113.810943,236.773321 113.767898,236.784356 113.725404,236.794875 L113.477192,236.851998 C113.396744,236.869104 113.318624,236.884337 113.242951,236.897883 L113.023388,236.933651 L112.819209,236.960424 L112.631121,236.979324 L112.380707,236.995364 L112.170473,237 L112.053818,237 L111.88009,236.990195 L111.779055,236.980197 L111.981907,174.5147 C111.991715,171.494414 110.067494,167.609728 107.669444,165.693339 L107.497368,165.55984 L1.86581581,86.8311704 C-0.620968627,84.9777351 -0.62290839,81.9741692 1.86581581,80.1192884 L107.497368,1.39061856 C109.984152,-0.462816579 114.014087,-0.464262317 116.502811,1.39061856 Z" id="Path" opacity="0.939545"></path>
        </g>
    </g>
</svg>