<svg viewBox="0 0 24 24" xmlns="http://www.w3.org/2000/svg">
    <g fill="none" fill-rule="evenodd">
        <path fill="none" d="M0 0h24v24H0z"/>
        <path d="M20.35 22.19c.955 0 1.65-.73 1.65-1.66 0-.425-.148-.842-.478-1.172l-3.47-3.496a8.774 8.774 0 0 0 1.597-5.037C19.65 5.969 15.671 2 10.825 2 5.978 2 2 5.96 2 10.825c0 4.846 3.97 8.816 8.825 8.816 1.78 0 3.44-.53 4.829-1.451l3.514 3.53c.313.313.747.47 1.182.47zm-9.525-4.869c-3.579 0-6.506-2.927-6.506-6.496 0-3.579 2.927-6.506 6.506-6.506 3.57 0 6.496 2.927 6.496 6.506 0 3.57-2.927 6.496-6.496 6.496z" fill="currentColor"/>
    </g>
</svg>
