<svg viewBox="0 0 20 20"
    xmlns="http://www.w3.org/2000/svg">
    <g fill="currentColor" fill-rule="evenodd">
        <path fill="none" d="M0 0h20v20H0z"/>
        <path d="M16.062 17.657c.689 0 1.195-.54 1.195-1.22a1.19 1.19 0 0 0-.34-.855l-2.289-2.306a6.478 6.478 0 0 0 1.187-3.743C15.815 5.938 12.877 3 9.283 3 5.697 3 2.75 5.938 2.75 9.533c0 3.594 2.938 6.532 6.533 6.532 1.32 0 2.556-.398 3.586-1.079l2.313 2.322c.24.233.548.349.88.349zm-6.78-3.335c-2.63 0-4.789-2.158-4.789-4.79 0-2.63 2.158-4.789 4.79-4.789 2.631 0 4.79 2.158 4.79 4.79 0 2.631-2.159 4.79-4.79 4.79z"/>
    </g>
</svg>
