<svg viewBox="0 0 20 20" xmlns="http://www.w3.org/2000/svg">
    <g fill="none" fill-rule="evenodd">
        <path fill="none" d="M0 0h20v20H0z"/>
        <path d="M15.354 15.377c.374-.356.365-.98.008-1.336l-4.026-4.026 4.026-4.017c.357-.366.366-.98-.008-1.337a.942.942 0 0 0-1.328-.008L10 8.679 5.974 4.653c-.349-.349-.98-.365-1.336.008-.374.357-.357.98-.009 1.328l4.026 4.026L4.63 14.05c-.348.349-.365.972.009 1.328.357.374.987.357 1.336.009L10 11.36l4.026 4.026a.942.942 0 0 0 1.328-.009z" fill="currentColor"/>
    </g>
</svg>
