<svg viewBox="0 0 20 20" xmlns="http://www.w3.org/2000/svg">
    <g fill="none" fill-rule="evenodd">
        <path fill="none" d="M0 0h20v20H0z"/>
        <path d="M10 15.59c3.056 0 5.585-2.53 5.585-5.585 0-3.056-2.536-5.585-5.592-5.585-3.056 0-5.578 2.53-5.578 5.585 0 3.056 2.53 5.585 5.585 5.585zm1.805-3.206a.552.552 0 0 1-.397-.164l-1.415-1.415-1.408 1.415a.541.541 0 0 1-.403.164.559.559 0 0 1-.554-.568c0-.143.055-.28.157-.39l1.422-1.414-1.422-1.415a.554.554 0 0 1-.157-.39c0-.314.246-.554.554-.554a.53.53 0 0 1 .39.158l1.421 1.415 1.436-1.422a.553.553 0 0 1 .943.396c0 .15-.055.274-.164.39l-1.415 1.422 1.415 1.415a.56.56 0 0 1-.403.957z" fill="currentColor"/>
    </g>
</svg>
