<svg viewBox="0 0 20 20"
    xmlns="http://www.w3.org/2000/svg">
    <g fill="currentColor" fill-rule="evenodd">
        <path fill="none" d="M0 0h20v20H0z"/>
        <path d="M6.552 18.949c.986-.986 2.013-3.265 2.784-4.226l1.723 1.732c.696.704 1.55.704 2.229.025l1.094-1.102c.546-.547.654-1.194.306-1.79l3.43-3.43c.97-.97.945-2.13-.041-3.116L11.564.522c-.952-.953-2.543-.564-2.866.87-.663 2.875-.787 3.554-1.55 4.739-.547-.232-1.127-.1-1.624.398L4.431 7.622c-.68.68-.68 1.525.024 2.23l1.724 1.722c-.945.771-3.232 1.798-4.218 2.784-1.416 1.417-1.408 3.108.042 4.55 1.442 1.44 3.132 1.457 4.549.04zm7.1-6.488L8.35 7.15c.936-1.442 1.11-2.494 1.773-4.938.09-.365.39-.464.638-.216l3.844 3.845c-.215 1.317-.936 2.295-1.806 3.165a.216.216 0 0 0-.017.315c.406.406 2.586-.762 3.53-1.782l.597.589c.34.348.34.729.016 1.052l-3.273 3.281zm-10.58 5.377c-.77-.787-.77-1.706-.017-2.452 1.326-1.318 4.027-2.444 4.665-3.09.373-.39.406-.846.066-1.186L5.781 9.114c-.182-.19-.182-.39 0-.58l.646-.63c.183-.182.382-.19.572 0l6.007 6.007c.182.182.182.39-.008.572l-.622.638c-.19.19-.397.199-.588.008L9.8 13.124c-.34-.34-.796-.307-1.185.066-.646.638-1.773 3.348-3.09 4.665-.755.762-1.666.754-2.453-.017zm1.21-.215a.98.98 0 0 0 .977-.978.987.987 0 0 0-.978-.986.981.981 0 1 0 0 1.964z" />
    </g>
</svg>
