<svg viewBox="0 0 21 20" xmlns="http://www.w3.org/2000/svg">
    <g fill="none" fill-rule="evenodd">
        <path fill="none" d="M.27 0h20v20h-20z"/>
        <path d="m10.71 17.66 6.167-6.167c.282-.274.274-.78-.008-1.055-.274-.29-.73-.249-1.021.025L9.722 16.59c-1.56 1.57-3.653 1.411-4.989.067-1.353-1.345-1.502-3.428.066-4.997l8.376-8.376c.913-.913 2.283-1.079 3.17-.182.897.896.731 2.25-.182 3.17l-8.218 8.227c-.373.373-.813.265-1.07.016-.25-.265-.357-.697.016-1.079l5.728-5.727c.29-.291.307-.714.033-.997-.282-.265-.706-.257-.996.034l-5.76 5.752c-.88.897-.848 2.258-.059 3.046.855.855 2.15.839 3.046-.058l8.26-8.259c1.602-1.602 1.544-3.71.14-5.122-1.377-1.37-3.519-1.469-5.13.133L3.73 10.68c-2.1 2.1-1.96 5.113-.05 7.023 1.909 1.9 4.93 2.05 7.03-.042z" fill="currentColor"/>
    </g>
</svg>
