<svg viewBox="0 0 20 20" xmlns="http://www.w3.org/2000/svg">
    <g fill="none" fill-rule="evenodd">
        <path fill="none" d="M0 0h20v20H0z"/>
        <path d="M15.258 1.731C15.2.992 14.768.594 13.972.594H6.028c-.789 0-1.229.398-1.278 1.137h10.508zm1.694 2.39c-.117-.788-.515-1.236-1.395-1.236H4.451c-.88 0-1.279.448-1.395 1.237h13.896zm-.905 15.282c1.785 0 2.723-.93 2.723-2.697V8.172c0-1.776-.938-2.697-2.723-2.697H3.953c-1.793 0-2.723.921-2.723 2.697v8.534c0 1.776.93 2.697 2.723 2.697h12.094zM5.23 17.776H4.052c-.772 0-1.195-.406-1.195-1.212V8.305c0-.805.423-1.203 1.195-1.203h11.895c.764 0 1.196.398 1.196 1.203v8.26c0 .805-.432 1.211-1.196 1.211h-1.104c-.73-1.651-2.59-2.772-4.806-2.772-2.208 0-4.067 1.12-4.806 2.772zm4.806-3.967c1.444.016 2.565-1.212 2.565-2.798 0-1.51-1.129-2.756-2.565-2.756-1.428 0-2.565 1.245-2.557 2.756 0 1.586 1.121 2.781 2.557 2.798z" fill="currentColor"/>
    </g>
</svg>
