<svg viewBox="0 0 20 20" xmlns="http://www.w3.org/2000/svg">
    <g fill="none" fill-rule="evenodd">
        <path fill="none" d="M0 0h20v20H0z"/>
        <path d="M13.725 9.99c1.726 0 3.123-1.518 3.123-3.386 0-1.84-1.39-3.309-3.123-3.309-1.71 0-3.123 1.49-3.123 3.323.008 1.861 1.405 3.373 3.123 3.373zm-8.263.165c1.504 0 2.716-1.334 2.716-2.98 0-1.605-1.212-2.903-2.716-2.903-1.49 0-2.724 1.32-2.717 2.91 0 1.646 1.22 2.973 2.717 2.973zm8.263-1.412c-.983 0-1.818-.927-1.818-2.132 0-1.162.827-2.068 1.818-2.068.999 0 1.819.891 1.819 2.06 0 1.199-.827 2.14-1.819 2.14zm-8.263.178c-.806 0-1.49-.77-1.49-1.74 0-.927.677-1.682 1.49-1.682.827 0 1.497.741 1.497 1.675 0 .977-.684 1.747-1.497 1.747zm1.618 7.786c-.392-.228-.656-.748-.606-1.22H1.476c-.136 0-.193-.063-.193-.184 0-1.633 1.911-3.188 4.172-3.188.798 0 1.597.2 2.21.542.242-.35.542-.649.934-.905-.906-.556-2.032-.856-3.144-.856C2.439 10.896 0 13.05 0 15.416c0 .856.513 1.291 1.54 1.291h5.54zm11.088 0c1.233 0 1.832-.392 1.832-1.233 0-1.961-2.453-4.57-6.275-4.57-3.821 0-6.274 2.609-6.274 4.57 0 .841.599 1.233 1.832 1.233h8.885zm.22-1.248H9.056c-.164 0-.228-.057-.228-.185 0-1.09 1.761-3.123 4.898-3.123 3.138 0 4.899 2.032 4.899 3.123 0 .128-.064.185-.235.185z" fill="currentColor"/>
    </g>
</svg>
