<svg viewBox="0 0 20 20" xmlns="http://www.w3.org/2000/svg">
    <g fill="none" fill-rule="evenodd">
        <path fill="none" d="M0 0h20v20H0z"/>
        <path d="M10.004 10.19c2.009 0 3.636-1.777 3.636-3.952 0-2.141-1.627-3.843-3.636-3.843-2 0-3.644 1.727-3.636 3.86.009 2.166 1.627 3.934 3.636 3.934zm0-1.453c-1.145 0-2.117-1.088-2.117-2.482-.008-1.361.963-2.407 2.117-2.407 1.162 0 2.117 1.029 2.117 2.39 0 1.395-.963 2.499-2.117 2.499zm5.172 9.172c1.436 0 2.125-.456 2.125-1.436 0-2.283-2.848-5.32-7.297-5.32-4.45 0-7.305 3.037-7.305 5.32 0 .98.69 1.436 2.125 1.436h10.352zm.257-1.452H4.567c-.2 0-.274-.067-.274-.216 0-1.27 2.05-3.636 5.711-3.636 3.652 0 5.703 2.366 5.703 3.636 0 .15-.075.216-.274.216z" fill="currentColor"/>
    </g>
</svg>
