<svg viewBox="0 0 21 20" xmlns="http://www.w3.org/2000/svg">
    <g fill="none" fill-rule="evenodd">
        <path fill="none" d="M.577 0h20v20h-20z"/>
        <path d="M14.763 18.283c1.452 0 2.44-.415 3.328-1.387.059-.066.117-.132.175-.207.49-.548.73-1.12.73-1.644 0-.622-.332-1.187-1.07-1.701l-2.474-1.719c-.78-.54-1.677-.58-2.374.117l-.623.614c-.207.216-.407.232-.656.066-.448-.307-1.294-1.054-1.884-1.635-.59-.59-1.195-1.27-1.519-1.776-.166-.241-.15-.44.067-.656l.614-.614c.697-.698.656-1.602.108-2.374L7.433 2.86c-.49-.714-1.079-1.054-1.701-1.063-.532-.008-1.096.233-1.644.714l-.2.175c-.979.904-1.402 1.867-1.402 3.378 0 2.44 1.42 5.33 4.175 8.068 2.748 2.731 5.612 4.15 8.102 4.15zm0-1.378c-2.117.033-4.765-1.486-7.056-3.76-2.3-2.275-3.86-5.014-3.826-7.13.016-.897.332-1.67.962-2.225a3.21 3.21 0 0 1 .175-.142c.232-.199.481-.307.714-.307.24 0 .456.1.622.349l1.56 2.34c.192.283.2.598-.082.88l-.673.665c-.622.606-.572 1.328-.166 1.892.449.631 1.287 1.577 1.984 2.266.739.73 1.768 1.652 2.374 2.092.565.407 1.279.457 1.893-.166l.664-.672c.274-.29.598-.274.88-.083l2.307 1.527c.25.166.34.374.34.623 0 .224-.099.481-.306.714-.05.058-.092.116-.142.174-.547.63-1.328.946-2.224.963z" fill="currentColor"/>
    </g>
</svg>
