<svg viewBox="0 0 21 20" xmlns="http://www.w3.org/2000/svg">
    <g fill="none" fill-rule="evenodd">
        <path fill="none" d="M.502 0h20v20h-20z"/>
        <path d="M10.506 19.846c.224 0 .813-1.179.813-2.35v-3.925h4.441c.789 0 1.295-.498 1.295-1.245 0-1.785-1.42-3.553-3.586-4.416l-.274-3.927c1.071-.705 2.05-1.486 2.474-2.033.232-.291.34-.59.34-.855 0-.548-.423-.955-1.046-.955H6.04c-.623 0-1.046.407-1.046.955 0 .265.108.564.34.855.424.547 1.412 1.328 2.474 2.033L7.542 7.91c-2.174.863-3.594 2.63-3.594 4.416 0 .747.507 1.245 1.295 1.245h4.441v3.926c0 1.17.59 2.35.822 2.35zm1.46-12.368a8.387 8.387 0 0 0-1.46-.133c-.506 0-.996.05-1.47.133l.25-4.159c.008-.14-.017-.199-.117-.257-1.128-.581-2-1.254-2.133-1.436-.066-.091-.008-.166.083-.166h6.774c.083 0 .14.075.074.166-.124.182-1.004.855-2.133 1.436-.1.058-.125.116-.116.257l.249 4.159zm3.42 4.69H5.626c-.166 0-.249-.091-.216-.29.2-1.487 2.158-3.172 5.097-3.172 2.938 0 4.889 1.685 5.088 3.171.033.2-.05.29-.207.29z" fill="currentColor" fill-rule="nonzero"/>
    </g>
</svg>
