<svg xmlns="http://www.w3.org/2000/svg" viewBox="0 0 512 512" style="enable-background:new 0 0 512 512;">
	<g>
		<path d="M28.4,113.8h455.1c15.7,0,28.4-12.7,28.4-28.4c0-15.7-12.7-28.4-28.4-28.4H28.4C12.7,56.9,0,69.6,0,85.3
		C0,101,12.7,113.8,28.4,113.8z M28.4,284.4h455.1c15.7,0,28.4-12.7,28.4-28.4c0-15.7-12.7-28.4-28.4-28.4H28.4
		C12.7,227.6,0,240.3,0,256C0,271.7,12.7,284.4,28.4,284.4z M28.4,455.1h199.1c15.7,0,28.4-12.7,28.4-28.4
		c0-15.7-12.7-28.4-28.4-28.4H28.4C12.7,398.2,0,411,0,426.7C0,442.4,12.7,455.1,28.4,455.1z" fill="currentColor" />
	</g>
</svg>
