<svg viewBox="0 0 21 20" xmlns="http://www.w3.org/2000/svg">
    <g fill="none" fill-rule="evenodd">
        <path fill="none" d="M.038 0h20v20h-20z"/>
        <path d="M9.61 13.28c.623 0 .955-.382.996-.955 0-.083 0-.174.008-.25.042-1.012.424-1.452 1.777-2.34 1.452-.963 2.324-2.067 2.324-3.66 0-2.516-2.05-3.985-4.715-3.985-1.984 0-3.66.888-4.374 2.44-.183.39-.266.78-.266 1.121 0 .573.349.963.963.963.49 0 .847-.274 1.004-.73.415-1.42 1.362-1.96 2.582-1.96 1.477 0 2.631.839 2.631 2.167 0 1.137-.672 1.743-1.81 2.507-1.261.863-2.158 1.784-2.158 3.187v.44c0 .631.374 1.054 1.038 1.054zm.008 4.631c.756 0 1.362-.597 1.362-1.336 0-.747-.606-1.337-1.362-1.337a1.34 1.34 0 0 0-1.353 1.337c0 .739.606 1.336 1.353 1.336z" fill="currentColor"/>
    </g>
</svg>
