<svg viewBox="0 0 24 24" xmlns="http://www.w3.org/2000/svg">
    <g fill="none" fill-rule="evenodd">
        <path fill="none" d="M0 0h24v24H0z"/>
        <path d="M19.446 22c2.285 0 3.498-1.205 3.498-3.473V5.473c0-2.26-1.213-3.473-3.498-3.473H4.548C2.263 2 1.05 3.205 1.05 5.473v13.054C1.05 20.803 2.263 22 4.548 22h14.898zm-.058-2.094H4.598c-.939 0-1.446-.482-1.446-1.462V8.739c0-.99.507-1.463 1.446-1.463h14.79c.93 0 1.454.474 1.454 1.463v9.705c0 .98-.523 1.462-1.454 1.462zM4.75 16.86h14.5a.75.75 0 0 1 .75.75v.7a.75.75 0 0 1-.75.75H4.75a.75.75 0 0 1-.75-.75v-.7a.75.75 0 0 1 .75-.75z" fill-opacity=".87" fill="#000"/>
    </g>
</svg>
