<svg viewBox="0 0 21 20" xmlns="http://www.w3.org/2000/svg">
    <g fill="none" fill-rule="evenodd">
        <path fill="none" d="M.655 0h20v20h-20z"/>
        <path d="M17.452 18.922c1.635 0 2.723-1.129 2.723-2.822v-2.341c0-.565-.382-.938-.955-.938h-.68V3.814c0-1.793-.922-2.722-2.698-2.722H4.428c-1.353 0-2.283.938-2.283 2.382v1.743c0 .565.382.938.955.938h1.992v10.053c0 1.8.905 2.714 2.706 2.714h9.654zM5.158 4.603H3.706V3.474c0-.515.307-.822.722-.822.44 0 .73.307.73.822v1.129zm2.707 12.692c-.673 0-1.146-.482-1.146-1.154V3.574c0-.307-.033-.598-.083-.855H15.7c.806 0 1.212.423 1.212 1.195v8.907H9.965c-.573 0-.963.373-.963.938v2.382c0 .697-.473 1.154-1.137 1.154zm6.748-11.123a.518.518 0 0 0 .523-.531.516.516 0 0 0-.523-.523H9.018a.518.518 0 0 0-.53.523.52.52 0 0 0 .53.53h5.595zM11.957 9.01a.513.513 0 0 0 .531-.523.52.52 0 0 0-.531-.531H9.018a.52.52 0 0 0-.53.53c0 .3.223.524.53.524h2.939zm5.42 8.284h-7.03c.182-.349.282-.755.282-1.245v-1.602h7.927v1.585c0 .756-.473 1.262-1.179 1.262z" fill="currentColor"/>
    </g>
</svg>
