<svg viewBox="0 0 20 20"
    xmlns="http://www.w3.org/2000/svg">
    <g fill="none" fill-rule="evenodd">
        <path fill="none" d="M0 0h20v20H0z"/>
        <path d="M2.652 4.923v-.988c0-.805.423-1.195 1.187-1.195h1.046V1.08H3.73C1.938 1.08 1 2.01 1 3.786v1.137h1.652zM9.774 2.74V1.08H6.105v1.66h3.669zm5.105 1.195v-.149c0-1.776-.938-2.706-2.731-2.706h-1.154v1.66h1.088c.722 0 1.145.39 1.145 1.13v.065h1.652zm1.411 14.983c1.793 0 2.731-.93 2.731-2.706V7.737c0-1.776-.938-2.706-2.731-2.706H7.873c-1.793 0-2.73.93-2.73 2.706v8.475c0 1.777.937 2.706 2.73 2.706h8.417zM2.652 9.73V6.143H1V9.73h1.652zm13.53 7.53H7.981c-.764 0-1.179-.4-1.179-1.196V7.887c0-.797.415-1.196 1.179-1.196h8.201c.764 0 1.187.399 1.187 1.196v8.176c0 .797-.423 1.195-1.187 1.195zm-12.16-2.3v-1.652h-.216c-.73 0-1.154-.398-1.154-1.204v-1.162H1v1.312c0 1.785.938 2.706 2.731 2.706h.29z" fill="currentColor"/>
    </g>
</svg>
