<svg width="20" height="20" xmlns="http://www.w3.org/2000/svg">
    <g fill="none" fill-rule="evenodd">
        <path fill="none" d="M0 0h20v20H0z"/>
        <path d="M14.01 1.2C13.95.453 13.51.054 12.705.054h-5.62c-.805 0-1.245.399-1.303 1.146h8.226zm1.394 2.415c-.116-.788-.515-1.245-1.411-1.245H5.742c-.888 0-1.295.457-1.411 1.245h11.073zm-.465 16.303c1.594 0 2.523-.93 2.523-2.706V7.69c0-1.776-.938-2.706-2.73-2.706H5.268c-1.793 0-2.731.93-2.731 2.706v9.52c0 1.777.938 2.707 2.73 2.707h9.671zm-.108-1.66H5.376c-.763 0-1.187-.399-1.187-1.195V7.84c0-.805.424-1.195 1.187-1.195h9.248c.763 0 1.187.39 1.187 1.195v9.223c0 .796-.424 1.195-.98 1.195z" fill="currentColor"/>
    </g>
</svg>
