<svg viewBox="0 0 20 20"
    xmlns="http://www.w3.org/2000/svg">
    <g fill="none" fill-rule="evenodd">
        <path fill="none" d="M0 0h20v20H0z"/>
        <path d="M13.178 17.75c1.522 0 2.71-.167 3.566-1.026.848-.859 1.006-2.026 1.006-3.56v-6.33c0-1.534-.158-2.71-1.006-3.56-.864-.859-2.044-1.034-3.566-1.034H6.795c-1.505 0-2.685.175-3.54 1.034C2.397 4.124 2.24 5.3 2.24 6.81v6.354c0 1.534.158 2.71 1.014 3.56.856.86 2.036 1.026 3.558 1.026h6.366zm.233-1.66H6.587c-.864 0-1.662-.124-2.12-.583-.457-.459-.573-1.243-.573-2.11v-6.78c0-.883.116-1.675.574-2.134.457-.459 1.255-.575 2.136-.575h6.807c.865 0 1.654.116 2.12.575.457.467.565 1.25.565 2.118v6.796c0 .867-.108 1.651-.565 2.11-.466.467-1.255.584-2.12.584z" fill="currentColor"/>
    </g>
</svg>

