<svg viewBox="0 0 20 20" version="1.1" xmlns="http://www.w3.org/2000/svg" xmlns:xlink="http://www.w3.org/1999/xlink">
    <g id="Page-1" stroke="none" stroke-width="1" fill="none" fill-rule="evenodd">
        <g id="Artboard" transform="translate(-436.000000, -204.000000)">
            <g id="square.stack.3d.down.right" transform="translate(436.000000, 204.000000)">
                <rect id="Rectangle" fill-opacity="0" fill="#FFFFFF" x="0" y="0" width="20" height="20"></rect>
                <path d="M2.69099609,15.5872266 C2.87361328,15.5872266 3.06453125,15.5374219 3.25544922,15.4129102 L3.25544922,6.66388672 C3.25544922,6.20734375 3.33845703,6.06623047 3.72859375,5.84210938 L11.3155078,1.46759766 C11.3155078,0.820136719 10.9004687,0.43 10.3526172,0.43 C10.095293,0.43 9.81306641,0.513007813 9.52253906,0.679023438 L2.67439453,4.62189453 C1.78621094,5.13654297 1.67,5.31916016 1.67,6.34845703 L1.67,14.1760938 C1.67,15.0144727 2.07673828,15.5872266 2.69099609,15.5872266 Z M6.0528125,17.5213086 C6.22712891,17.5213086 6.41804687,17.4715039 6.61726562,17.355293 L6.61726562,8.59796875 C6.61726562,8.12482422 6.68367187,8.00861328 7.08210937,7.77619141 L14.6773242,3.40167969 C14.6773242,2.76251953 14.2622852,2.37238281 13.697832,2.37238281 C13.4488086,2.37238281 13.166582,2.44708984 12.8760547,2.61310547 L6.01960937,6.55597656 C5.13972656,7.06232422 5.02351562,7.26154297 5.02351562,8.29083984 L5.01521484,16.1184766 C5.01521484,16.9568555 5.44685547,17.5213086 6.0528125,17.5213086 Z M9.62214844,19.5633008 C9.93757812,19.5633008 10.3194141,19.4387891 10.7510547,19.1897656 L17.2173633,15.4793164 C18.064043,14.9895703 18.329668,14.5413281 18.329668,13.5286328 L18.329668,6.06623047 C18.329668,4.97882813 17.9146289,4.40607422 17.2173633,4.40607422 C16.9102344,4.40607422 16.5366992,4.52228516 16.1133594,4.76300781 L9.63875,8.49835938 C8.77546875,9.00470703 8.51814453,9.44464844 8.51814453,10.449043 L8.51814453,17.9114453 C8.51814453,18.9739453 8.91658203,19.5633008 9.62214844,19.5633008 Z M10.17,17.6292188 C10.1284961,17.620918 10.1201953,17.5877148 10.1201953,17.5379102 L10.1783008,10.5071484 C10.1783008,10.2083203 10.2696094,10.0589063 10.5186328,9.90949219 L16.5865039,6.34015625 C16.6114062,6.32355469 16.6363086,6.32355469 16.6612109,6.32355469 C16.7027148,6.33185547 16.7276172,6.36505859 16.7276172,6.42316406 L16.6861133,13.4788281 C16.6861133,13.7278516 16.6031055,13.9187695 16.3457812,14.0681836 L10.2530078,17.6126172 C10.2198047,17.6292188 10.2032031,17.6375195 10.17,17.6292188 Z" fill="currentColor"></path>
            </g>
        </g>
    </g>
</svg>