<svg viewBox="0 0 21 20" xmlns="http://www.w3.org/2000/svg">
    <g fill="none" fill-rule="evenodd">
        <path fill="none" d="M.423 0h20v20h-20z"/>
        <path d="M16.18 18.759c.383-.29.466-.772.242-1.428L14.72 12.26l4.358-3.129c.556-.398.797-.838.639-1.303-.158-.457-.598-.68-1.287-.673l-5.345.034-1.627-5.097c-.208-.664-.548-1.021-1.038-1.021-.481 0-.822.357-1.038 1.021L7.756 7.188 2.41 7.154c-.69-.008-1.12.216-1.278.673-.158.465.074.905.639 1.303l4.358 3.13-1.71 5.071c-.224.656-.141 1.137.249 1.428.39.299.871.2 1.436-.208l4.316-3.17 4.316 3.17c.565.407 1.055.507 1.445.208zm-1.527-2.009-3.743-2.888c-.34-.266-.64-.266-.971 0L6.195 16.75c-.033.017-.058.033-.075.008-.008-.016-.008-.024 0-.066l1.577-4.457c.142-.407.092-.665-.282-.914L3.514 8.65c-.033-.017-.05-.034-.042-.058.017-.017.034-.025.075-.025l4.723.108c.432.016.648-.125.772-.54l1.337-4.532c.008-.05.024-.058.041-.058.025 0 .033.008.05.058l1.328 4.532c.125.415.349.556.772.54l4.723-.108c.05 0 .067.008.075.025.008.024 0 .033-.042.058l-3.893 2.672c-.382.258-.431.507-.29.914l1.577 4.457c.016.042.016.05 0 .066-.017.025-.033.009-.067-.008z" fill="currentColor"/>
    </g>
</svg>
