<svg viewBox="0 0 20 20"
    xmlns="http://www.w3.org/2000/svg">
    <g fill="none" fill-rule="evenodd">
        <path fill="none" d="M0 0h20v20H0z"/>
        <path d="M10.069 18.942c4.706 0 8.591-3.884 8.591-8.583 0-1.9-.639-3.669-1.71-5.096l.664-.664c.216-.216.332-.474.332-.723a.916.916 0 0 0-.93-.92.977.977 0 0 0-.738.298l-.623.614a8.637 8.637 0 0 0-4.623-2.042V.988A.974.974 0 0 0 10.069 0a.98.98 0 0 0-.963.988v.838c-4.258.49-7.62 4.159-7.62 8.533 0 4.699 3.885 8.583 8.583 8.583zm0-1.71a6.84 6.84 0 0 1-6.857-6.873 6.832 6.832 0 0 1 6.849-6.864 6.86 6.86 0 0 1 6.88 6.864 6.85 6.85 0 0 1-6.872 6.873zm0-5.428c.797 0 1.436-.648 1.436-1.436 0-.548-.307-1.013-.772-1.27V5.279a.657.657 0 0 0-.672-.664.654.654 0 0 0-.656.664v3.819c-.465.257-.772.73-.772 1.27 0 .788.639 1.436 1.436 1.436z" fill="currentColor"/>
    </g>
</svg>
