<svg viewBox="0 0 20 20" version="1.1"
    xmlns="http://www.w3.org/2000/svg"
    xmlns:xlink="http://www.w3.org/1999/xlink">
    <g id="Page-1" stroke="none" stroke-width="1" fill="none" fill-rule="evenodd">
        <g id="web-_-検索-&amp;-通知" transform="translate(-1136.000000, -541.000000)">
            <g id="Group-56" transform="translate(1008.000000, 72.000000)">
                <g id="2/list/input-field-copy-2" transform="translate(0.000000, 73.000000)">
                    <g id="Rectangle-2-Copy-5" transform="translate(0.000000, 282.000000)">
                        <g id="2/list/task-copy-20" transform="translate(0.000000, 80.000000)">
                            <g id="Group-11" transform="translate(24.000000, 0.000000)">
                                <g id="text.justifyleft.small-copy" transform="translate(104.000000, 34.000000)">
                                    <rect id="Rectangle" fill-opacity="0" fill="#FFFFFF" x="0" y="0" width="20" height="20"></rect>
                                    <path d="M15.0362109,7.73507813 C15.3369922,7.73507813 15.57625,7.48898438 15.57625,7.19503906 C15.57625,6.89425781 15.3369922,6.655 15.0362109,6.655 L4.95320313,6.655 C4.65242188,6.655 4.42,6.90109375 4.42,7.19503906 C4.42,7.48898438 4.65925781,7.73507813 4.95320313,7.73507813 L15.0362109,7.73507813 Z M15.0362109,10.5378125 C15.3369922,10.5378125 15.57625,10.2917188 15.57625,9.99777344 C15.57625,9.70382813 15.3369922,9.46457031 15.0362109,9.46457031 L4.95320313,9.46457031 C4.65242188,9.46457031 4.42,9.70382813 4.42,9.99777344 C4.42,10.2917188 4.65925781,10.5378125 4.95320313,10.5378125 L15.0362109,10.5378125 Z M10.6680469,13.3405469 C10.9688281,13.3405469 11.2080859,13.1012891 11.2080859,12.8073438 C11.2080859,12.5065625 10.9688281,12.2673047 10.6680469,12.2673047 L4.95320313,12.2673047 C4.65242188,12.2673047 4.42,12.5065625 4.42,12.8073438 C4.42,13.0944531 4.65925781,13.3405469 4.95320313,13.3405469 L10.6680469,13.3405469 Z" id="text.justifyleft.small" fill="currentColor"></path>
                                </g>
                            </g>
                        </g>
                    </g>
                </g>
            </g>
        </g>
    </g>
</svg>