<svg xmlns="http://www.w3.org/2000/svg">
    <g fill="none" fill-rule="evenodd">
        <path fill="none" d="M0 0h20v20H0z"/>
        <path d="M17.104 17.278c1.8 0 2.739-.93 2.739-2.706V9.65c0-.921-.125-1.345-.565-1.893l-2.722-3.353C15.535 3.15 15.078 2.76 13.584 2.76H6.43c-1.503 0-1.95.39-2.972 1.644L.727 7.757C.294 8.305.17 8.73.17 9.65v4.922c0 1.777.938 2.706 2.731 2.706h14.203zm-7.098-5.794c-1.12 0-1.817-.954-1.817-1.85V9.6c0-.324-.191-.63-.631-.63h-5.33c-.273 0-.331-.233-.19-.408l2.996-3.76c.374-.465.797-.664 1.353-.664h7.239c.556 0 .98.2 1.344.664l3.005 3.76c.133.175.083.407-.19.407h-5.338c-.432 0-.631.307-.631.631v.033c0 .897-.697 1.851-1.81 1.851zm7.015 4.134H2.984c-.764 0-1.179-.398-1.179-1.195V10.43h4.972c.266 1.478 1.553 2.582 3.23 2.582 1.676 0 2.963-1.104 3.228-2.582h4.973v3.993c0 .797-.424 1.195-1.187 1.195z" fill="currentColor"/>
    </g>
</svg>
