<svg viewBox="0 0 21 20" xmlns="http://www.w3.org/2000/svg">
    <g fill="none" fill-rule="evenodd">
        <path fill="none" d="M.73 0h20v20h-20z"/>
        <path d="M12.267 16.673c2.036 0 3.226-1.157 3.226-3.17v-.965l2.882 2.443c.367.311.759.519 1.134.519.726 0 1.221-.527 1.221-1.31V5.855c0-.782-.495-1.31-1.221-1.31-.375 0-.767.208-1.134.52l-2.882 2.443V6.502c0-2.004-1.19-3.162-3.226-3.162H3.956C1.992 3.34.73 4.498.73 6.51v7.05c0 1.996 1.19 3.113 3.226 3.113h8.311zm-.263-1.42H4.219c-1.253 0-1.964-.663-1.964-1.973V6.733c0-1.325.71-1.98 1.964-1.98h7.785c1.253 0 1.964.67 1.964 1.98v6.547c0 1.31-.719 1.972-1.964 1.972zm7.154-1.478c-.064 0-.112-.04-.184-.088l-3.481-2.85V9.208l3.48-2.85c.073-.056.12-.088.185-.088.087 0 .135.072.135.176v7.153c0 .112-.048.176-.135.176z" fill="currentColor"/>
    </g>
</svg>
