<svg viewBox="0 0 21 20" xmlns="http://www.w3.org/2000/svg">
    <g fill="none" fill-rule="evenodd">
        <path fill="none" d="M.345 0h20v20h-20z"/>
        <path d="M10.316 4.096c1.104 0 2-.913 2-1.976 0-1.104-.896-2-2-2-1.096 0-1.968.896-1.968 2 0 1.063.872 1.976 1.968 1.976zm2.822 15.78c.473 0 .896-.349.896-.938 0-.208-.058-.415-.174-.648l-1.768-3.577a6 6 0 0 0-.506-.847l-1.088-1.544.067-.216c.299-.946.415-1.527.481-2.44l.183-2.557c.091-1.261-.64-2.29-1.95-2.29-.964 0-1.653.53-2.541 1.394L5.377 7.566c-.465.456-.615.83-.656 1.403l-.174 2.108c-.042.573.282.946.788.98.498.033.863-.258.913-.872l.2-2.308.796-.705c.15-.133.366-.067.349.157l-.15 2.076c-.074 1.004.366 1.726.856 2.349l1.776 2.233c.174.216.2.299.274.456l1.9 3.835c.217.44.549.598.889.598zm2.382-9.795c.581 0 .947-.332.947-.847 0-.514-.366-.846-.947-.846h-2.092l-1.46-1.578-.15 2.267.623.622c.298.299.572.382 1.087.382h1.992zM5.111 19.876a.95.95 0 0 0 .73-.349l2.665-3.17c.266-.333.307-.416.415-.74.075-.215.133-.423.183-.63l-1.52-1.893-.448 2.084-2.523 2.988c-.232.274-.39.498-.39.83 0 .515.39.88.888.88z" fill="currentColor"/>
    </g>
</svg>
